<svg width="99" height="47" viewBox="0 0 99 47" fill="none" xmlns="http://www.w3.org/2000/svg">
<path d="M98.562 36.4528C98.3359 36.0412 98.0137 35.7212 97.606 35.5002C97.225 35.2935 96.8227 35.1874 96.4079 35.1874C96.2067 35.1874 96.0091 35.2126 95.8132 35.2611V32.7286C95.8132 29.8456 94.0881 28.5551 92.379 28.5551C91.8396 28.5551 91.3554 28.6737 90.9263 28.9074C90.7696 28.8319 90.5952 28.7887 90.41 28.7887H88.781C88.1259 28.7887 87.5954 29.3244 87.5954 29.9858V30.0056C87.5687 29.9714 87.5437 29.9373 87.5153 29.9049C86.7871 29.035 85.7545 28.5551 84.6116 28.5551C83.6342 28.5551 82.8508 28.848 82.2366 29.3315C82.0194 28.9954 81.6474 28.7905 81.245 28.7905H79.1549C78.7775 28.7905 78.425 28.9721 78.2025 29.2758V26.8781C78.2025 26.2167 77.6719 25.681 77.0168 25.681H75.3148C74.6597 25.681 74.1292 26.2167 74.1292 26.8781V29.5814C74.1078 29.5616 74.0864 29.54 74.0651 29.5203C73.1251 28.6809 72.0729 28.5551 71.5281 28.5551C70.216 28.5551 69.1069 29.1284 68.3627 30.1781V29.9858C68.3627 29.7971 68.3182 29.6173 68.2399 29.4592C68.3165 29.2992 68.3627 29.1212 68.3627 28.9325V26.7595C68.3627 26.098 67.8322 25.5624 67.1771 25.5624H65.4751C64.8199 25.5624 64.2894 26.098 64.2894 26.7595V28.9325C64.2894 29.1212 64.3339 29.2992 64.4122 29.4592C64.3357 29.6155 64.293 29.7899 64.2912 29.975C63.6289 29.008 62.6124 28.5551 61.5994 28.5551C61.3573 28.5551 61.1187 28.5838 60.889 28.6377V26.8763C60.889 26.2149 60.3585 25.6792 59.7034 25.6792H58.0014C57.3462 25.6792 56.8157 26.2149 56.8157 26.8763V27.3814C56.7997 27.3598 56.7854 27.3364 56.7694 27.3149C55.8526 26.0369 54.5423 25.3611 52.9827 25.3611C51.4232 25.3611 50.0862 26.1106 49.1568 27.4748C48.5213 28.4095 48.0993 29.6245 47.9071 31.0462C47.7077 30.7677 47.4015 30.4297 46.9297 29.9211C46.9119 29.9013 46.8941 29.8815 46.8745 29.8618C47.008 29.7126 47.1219 29.5292 47.1896 29.2974C47.2626 29.0547 47.2786 28.8283 47.2608 28.6198C47.9961 28.1057 48.0068 27.4407 47.9729 27.1567C47.9551 27.0147 47.9195 26.8709 47.8643 26.7343C48.0904 26.1268 48.1545 25.2964 47.8002 24.191C47.3712 22.8502 47.8537 21.0779 48.2062 20.0786C48.2542 20.0786 48.3023 20.0786 48.3504 20.0786C48.7901 20.0786 49.2138 20.1038 49.609 20.1523C49.6571 20.1577 49.7052 20.1613 49.7532 20.1613C49.7657 20.1613 49.7782 20.1613 49.7888 20.1613C50.0648 21.3206 50.9692 22.6093 52.543 22.6093H52.5537C52.5679 22.6093 52.5821 22.6093 52.5964 22.6093C52.6551 22.6093 52.7032 22.6057 52.737 22.6021C52.7459 22.6021 52.7566 22.6021 52.7655 22.6003C52.7922 22.5985 52.8171 22.5949 52.8438 22.5913C53.3352 22.5284 53.8479 22.2768 54.4034 21.8257C54.4586 21.9497 54.5244 22.0629 54.601 22.169C54.9339 22.6273 55.4662 22.8897 56.0644 22.8897C56.1036 22.8897 56.141 22.8897 56.1819 22.8861C56.6786 22.8591 57.4085 22.6525 59.0571 21.3278C59.6072 20.8856 60.095 20.4507 60.3621 20.208C60.3888 20.8551 60.5721 21.3925 60.9104 21.8077C61.3216 22.3127 61.8985 22.5913 62.5322 22.5913C62.9809 22.5913 63.4562 22.4493 63.944 22.169C64.3108 21.9587 64.706 21.6801 65.119 21.3386C65.1351 21.326 65.1511 21.3116 65.1671 21.2972C65.3861 21.5992 65.6442 21.8598 65.9398 22.0701C66.4525 22.4386 67.0293 22.6255 67.656 22.6255C68.5568 22.6255 69.4754 22.1708 70.4546 21.2397C70.7305 21.2271 70.9798 21.1912 71.2059 21.1319C71.27 21.2846 71.3412 21.4284 71.4213 21.565C71.9073 22.3954 72.6693 22.852 73.5666 22.852C74.4638 22.852 75.3878 22.4044 76.4418 21.4626C76.5254 21.5848 76.6127 21.698 76.7052 21.8041C77.1574 22.3271 77.6559 22.5913 78.1882 22.5913C78.6582 22.5913 79.0819 22.3379 79.4701 22.0629C79.6855 21.9101 79.9312 21.716 80.2142 21.4752C80.2783 21.7016 80.3691 21.9047 80.4848 22.0863C80.8445 22.6489 81.4409 22.9598 82.1637 22.9598C83.0467 22.9598 83.9956 22.4637 85.1421 21.3817C85.2204 21.4662 85.3059 21.5507 85.3985 21.6333C85.402 21.6369 85.4038 21.6387 85.4074 21.6423C86.1658 22.3199 87.0203 22.6632 87.9479 22.6632C88.6529 22.6632 89.4184 22.4224 90.2872 21.9281C91.0349 21.5021 91.8449 20.9054 92.7636 20.1074C93.4704 19.5556 93.8887 19.0721 93.8051 18.3926C93.7125 17.6485 93.1357 17.1093 92.4342 17.1093C92.3683 17.1093 92.3025 17.1147 92.2366 17.1237C92.2455 17.0176 92.2508 16.9116 92.2508 16.8038C92.2508 16.4389 92.2117 16.0992 92.1316 15.7918C92.0728 15.56 91.9891 15.276 91.8859 14.9489C91.8378 14.7979 91.8147 14.7062 91.8022 14.6541C91.8574 14.4276 91.8449 14.1904 91.7666 13.9693L91.7061 13.7985C91.5975 13.4894 91.3661 13.2377 91.0687 13.1047C90.7554 12.9645 90.4421 12.8944 90.1358 12.8944C89.1157 12.8944 88.3395 13.5163 88.0031 14.5768C87.3354 15.2364 86.2459 16.2771 84.7576 17.6791C84.4407 17.9469 84.1612 18.177 83.9208 18.3639C83.9742 18.2273 84.0383 18.0853 84.1131 17.9397C84.4442 17.2909 84.8484 16.6204 85.313 15.9464C85.8151 15.2185 86.3278 14.469 86.8352 13.7141C86.9153 13.5954 86.9901 13.4822 87.0577 13.3708C87.2713 13.5451 87.5473 13.6493 87.8499 13.6493C88.3199 13.6493 88.6956 13.4085 89.2279 12.9645C89.6302 12.6266 89.997 12.2276 90.3174 11.7765C90.7251 11.2013 90.9334 10.6172 90.9334 10.0384C90.9334 9.04624 90.2747 8.35425 89.3347 8.35425C88.8807 8.35425 88.4143 8.53039 87.9496 8.87909C87.5865 9.15229 87.2767 9.48121 87.0274 9.85866C87.015 9.87663 87.0043 9.89461 86.9936 9.91079C86.6393 9.66454 86.2851 9.60343 86.0269 9.60343C85.3753 9.60343 84.8875 10.0654 84.4567 10.5632C84.0971 10.9802 83.6769 11.577 83.1713 12.3876C82.8793 12.8549 82.5767 13.3672 82.2669 13.9172C82.0675 13.8632 81.8859 13.8453 81.7293 13.8453C81.1329 13.8453 80.3923 14.0681 79.4006 14.548C78.5407 14.9632 77.7574 15.4881 77.0702 16.11C77.3408 15.7505 77.5865 15.3928 77.8073 15.0387C78.6974 13.6152 79.13 12.4002 79.13 11.3235C79.13 10.8742 79.0784 10.5525 78.9644 10.281C78.7312 9.73105 78.2043 9.38775 77.5918 9.38775C77.2749 9.38775 76.9509 9.48301 76.5699 9.68611C75.9415 10.0132 75.3042 10.5417 74.6223 11.2966C73.9956 11.9904 73.3868 12.8118 72.8117 13.7338C72.5714 14.1185 72.3506 14.5031 72.1477 14.8877C72.0017 14.5103 71.7079 14.1958 71.302 14.0016C70.9566 13.8363 70.5454 13.7554 70.0469 13.7554C69.4274 13.7554 68.7704 13.9208 68.0939 14.2461C67.4779 14.5426 66.8958 14.9345 66.3617 15.4108C66.3154 15.4521 66.2691 15.4935 66.2246 15.5366C66.1961 15.4126 66.1587 15.2904 66.1124 15.1681C65.9255 14.6685 65.6264 14.3198 65.2241 14.1293C65.2152 14.1257 65.2063 14.1221 65.1992 14.1167C64.9855 14.0214 64.7469 13.9801 64.4301 13.9801C64.2449 13.9801 63.912 13.9944 63.0913 14.0915C62.8491 13.7158 62.4237 13.475 61.918 13.475C61.6813 13.475 61.4445 13.5235 61.2148 13.6188C60.8178 13.7662 60.4262 14.0322 60.0167 14.4312C59.8618 14.5804 59.7176 14.7368 59.5823 14.8985C59.5431 14.7727 59.4879 14.6433 59.4167 14.5013C59.2761 14.2263 59.0856 13.9837 58.8488 13.777C58.5123 13.484 58.1082 13.3312 57.6827 13.3312C56.9955 13.3312 56.1178 13.5577 54.9998 14.025C54.3179 14.3108 53.6218 14.6918 52.9186 15.1663C53.1144 14.7853 53.1946 14.6253 53.2391 14.5211C53.4082 14.1131 53.3601 13.6422 53.1091 13.2647C52.6854 12.623 51.7436 12.3606 50.8179 12.2708C50.8303 12.242 50.8428 12.2132 50.8552 12.1827C52.3543 8.61487 53.4278 6.02663 53.6076 5.20523C53.6877 4.84036 54.0438 2.97108 53.2711 2.00229C52.9916 1.65 52.5839 1.44869 52.1549 1.44869C52.1335 1.44869 52.1104 1.44869 52.0872 1.44869C51.3609 1.48284 50.9211 2.07418 50.7573 2.29706C50.4529 2.70686 50.0826 3.35932 49.6268 4.28856C49.6162 4.30833 49.6073 4.3299 49.5984 4.35147C48.3023 7.425 46.6822 11.142 45.9523 12.8118C45.8152 12.8477 45.6781 12.8837 45.541 12.9196C46.6591 11.0162 47.7451 8.98513 48.1777 7.32794C48.8026 4.93742 48.5818 2.87941 47.5546 1.53317C47.0205 0.833987 46.0075 0 44.2112 0C43.994 0 43.7696 0.0125815 43.54 0.0377449C41.3093 0.276797 38.256 1.82974 36.6342 2.73562C34.229 4.07647 32.1603 5.53235 31.3609 6.44363C30.323 7.6299 29.9776 9.45245 29.8637 10.4356C29.8334 10.6926 29.7996 11.0791 29.7907 11.5123C29.707 11.4853 29.6269 11.4619 29.5521 11.4404C29.4418 10.8778 29.1943 10.3619 28.8062 9.93595C28.0816 9.1415 26.9956 8.87729 26.1642 8.7982L26.0894 8.57892C25.9239 8.09363 25.4717 7.7665 24.9625 7.7665C24.6349 7.7665 24.318 7.9049 24.0937 8.14755L23.7715 8.49444C23.4065 8.40817 22.9579 8.33268 22.5182 8.33268C21.8292 8.33268 21.2755 8.5214 20.8732 8.89167C20.1183 9.58725 19.4952 11.3056 19.2335 12.1108C18.5143 12.2186 14.4587 12.4433 13.9122 12.4433C13.6594 12.4433 13.4404 12.4918 13.241 12.5925C12.8066 12.81 12.536 13.2449 12.536 13.7284C12.536 14.708 13.6184 15.3101 14.3946 15.3101C14.6029 15.3101 15.2705 15.2742 16.3423 15.2185C17.0295 15.1825 17.8466 15.1376 18.281 15.1214C18.281 15.1466 18.2775 15.1699 18.2775 15.1933C18.2739 15.2634 18.2739 15.3353 18.2775 15.4054C17.2716 15.4431 15.5394 15.5042 13.3674 15.5743C12.8547 15.5905 12.3971 15.9105 12.2013 16.3886C12.0055 16.8667 12.1052 17.4203 12.4559 17.7995L12.7372 18.1015C12.9615 18.3405 13.2766 18.4771 13.6024 18.4771C13.6184 18.4771 13.6344 18.4771 13.6505 18.4771C14.165 18.4556 15.5483 18.3998 16.5239 18.3621C16.4847 18.5454 16.4722 18.7306 16.474 18.9031C16.3245 19.0864 16.207 19.3075 16.1376 19.5663H14.4569C14.124 19.5663 13.8232 19.6886 13.5063 19.818C13.4457 19.8431 13.3621 19.8773 13.3015 19.8989C13.1716 19.8971 12.9597 19.8935 12.739 19.8881C11.9058 19.8737 10.6471 19.8503 10.0614 19.8503C9.66437 19.8503 9.37596 19.8503 9.05017 20.0984C8.64248 20.4057 8.47691 20.9342 8.62645 21.441C8.63001 21.4536 9.00388 22.683 10.008 22.7513C10.0329 22.7513 10.0614 22.7549 10.0952 22.7549C10.1913 22.7549 10.2857 22.7459 10.4548 22.7279C10.6489 22.7082 10.9408 22.6776 11.1367 22.6776C11.158 22.6776 11.1741 22.6776 11.1865 22.6776C11.3379 22.7136 11.491 22.7226 11.6815 22.7226C12.2796 22.7226 13.784 22.6255 15.1103 22.5302C14.7667 23.6895 14.8362 24.9603 14.8896 25.735C14.8041 26.019 14.7097 26.4126 14.6065 26.9177C14.1757 26.9392 13.8445 27.0381 13.5935 27.1711C13.5704 27.1711 13.5472 27.1711 13.5241 27.1711C13.5009 27.1711 13.4796 27.1711 13.4582 27.1711C13.2428 26.9428 12.9383 26.799 12.6001 26.799H5.49668C4.73649 26.799 4.11873 27.4227 4.11873 28.1902V28.2675C4.11873 29.035 4.73649 29.6587 5.49668 29.6587H6.01831C6.15895 29.6587 6.29782 29.6371 6.43134 29.594L6.75536 29.4915C6.88888 29.5364 7.0313 29.5616 7.17195 29.5634C7.17195 29.5634 7.89831 29.576 8.82051 29.5922C8.87926 29.7198 8.95759 29.8384 9.05195 29.9426C8.88104 29.8582 8.69233 29.8132 8.50005 29.8132C8.32024 29.8132 8.12975 29.8456 7.86804 29.9642C7.70248 29.9121 7.51911 29.8833 7.31437 29.8833C6.82301 29.8833 6.49721 30.0559 6.31562 30.1583H5.74592C5.29373 30.1583 4.97149 30.3507 4.7988 30.4549H1.38774C0.698764 30.4549 0.107703 30.9672 0.013347 31.6466C-0.0418424 32.0456 0.0756575 32.4482 0.337362 32.752C0.599067 33.0557 0.976491 33.2301 1.37528 33.2301H5.17979C5.19047 33.3433 5.21717 33.4835 5.27058 33.6345C4.77744 34.4505 4.19706 35.5936 3.87661 36.3809C3.41195 37.5186 3.44221 38.7103 3.9585 39.4868C4.29854 40.0008 4.82729 40.2956 5.40589 40.2956C5.42547 40.2956 5.44505 40.2956 5.46464 40.2956C6.40464 40.2632 6.85327 39.6845 7.09361 39.3735C7.16482 39.2801 7.22358 39.2064 7.26986 39.1722C7.53513 38.9781 7.83422 38.7103 8.12085 38.4227C8.24013 38.6312 8.35585 38.8217 8.44308 38.9637C8.51251 39.2909 8.6763 39.7618 9.05373 40.2183C9.78543 41.1008 11.7758 42.7832 14.0742 42.8425C14.1187 42.8425 14.1614 42.8443 14.2041 42.8443C15.6462 42.8443 16.9316 42.217 17.7808 41.3722C17.9926 41.5753 18.2793 41.7011 18.5961 41.7011H21.4126C21.0797 41.9564 20.866 42.3608 20.866 42.8191V42.9216C20.866 43.583 21.3966 44.1186 22.0517 44.1186H25.283C25.3934 44.2804 25.4913 44.4116 25.566 44.5069C25.8954 45.2977 26.5434 46.0832 27.4816 46.1335C27.5261 46.1353 27.5707 46.1371 27.6169 46.1371C28.6424 46.1371 29.8067 45.5547 30.4476 44.7208C30.7663 44.3056 30.9604 43.8904 31.0761 43.565C31.3378 43.3835 31.6582 43.1175 31.9644 42.7418C32.4309 42.1685 34.1346 39.8301 34.4141 39.3088C34.6634 38.8433 34.7702 38.3472 34.7399 37.8817C34.7773 37.8853 34.8165 37.8871 34.8557 37.8871H37.6668C37.7077 38.1639 37.8252 38.4191 38.0121 38.6312C38.1902 38.8343 38.4234 38.9817 38.6815 39.0626C38.8062 39.3448 39.0109 39.5838 39.2886 39.751C39.5058 39.8822 39.7515 39.9523 39.999 39.9523C40.015 39.9523 40.0292 39.9523 40.0452 39.9523C40.2304 40.1518 40.4921 40.3351 40.8606 40.3891C40.9247 40.398 40.9906 40.4034 41.0547 40.4034C41.4713 40.4034 41.8594 40.2165 42.1442 39.8786C42.4362 39.5317 42.6035 39.0284 42.6018 38.5288C43.07 38.766 43.5916 38.8828 43.9779 38.9152C44.1649 39.3142 44.5637 39.5892 45.0247 39.6C45.0372 39.6 45.0479 39.6 45.0586 39.6C45.185 39.6 45.3043 39.5856 45.4146 39.5605C45.4965 39.582 45.5571 39.591 45.5927 39.5946C45.6461 39.6018 45.7013 39.6054 45.7547 39.6054C45.9843 39.6054 46.2282 39.5371 46.4437 39.3951C46.4615 39.4059 46.481 39.4167 46.4988 39.4275C46.7143 39.5497 46.9528 39.6162 47.1896 39.6162C47.2857 39.6162 47.3801 39.6054 47.4709 39.5856C47.5207 39.6 47.5741 39.6108 47.6258 39.6198C47.697 39.6324 47.7682 39.6377 47.8394 39.6377C48.3308 39.6377 48.7705 39.3663 49.0162 38.9098C49.1034 38.748 49.1604 38.5719 49.1907 38.385C50.104 39.6863 51.4392 40.3998 52.9613 40.3998C54.366 40.3998 55.5766 39.8193 56.4614 38.7211C56.5878 38.5629 56.7071 38.3958 56.8193 38.2178V38.8846C56.8193 39.5461 57.3498 40.0817 58.0049 40.0817H59.7069C60.3621 40.0817 60.8926 39.5461 60.8926 38.8846V33.7855C60.8926 33.5248 60.9211 33.3289 60.9585 33.1905C60.962 33.2768 60.9638 33.3739 60.9638 33.4835V38.8828C60.9638 39.5443 61.4943 40.0799 62.1495 40.0799H63.8515C64.1666 40.0799 64.4532 39.9541 64.6651 39.751C64.8769 39.9541 65.1635 40.0799 65.4787 40.0799H67.1806C67.8358 40.0799 68.3663 39.5443 68.3663 38.8828V38.7984C69.0873 39.7726 70.1324 40.3136 71.4213 40.3136C72.5019 40.3136 73.4491 39.9109 74.1648 39.1632C74.2894 39.6899 74.7576 40.0799 75.3166 40.0799H77.0186C77.5402 40.0799 77.9835 39.7402 78.1419 39.2675L78.1704 39.3358C78.352 39.7851 78.7864 40.0799 79.2671 40.0799H81.3091C81.7008 40.0799 82.0657 39.8858 82.2865 39.5605C82.9594 40.0547 83.7909 40.3136 84.7362 40.3136C85.6815 40.3136 86.7782 39.9307 87.6025 38.9763C87.6488 39.5946 88.1597 40.0799 88.7828 40.0799H90.4848C91.1399 40.0799 91.6705 39.5443 91.6705 38.8828V33.7837C91.6705 33.523 91.699 33.3271 91.7363 33.1887C91.7399 33.275 91.7417 33.3721 91.7417 33.4817V38.881C91.7417 39.5425 92.2722 40.0781 92.9274 40.0781H94.6293C94.8572 40.0781 95.0709 40.0116 95.2507 39.8984C95.6156 40.0907 96.0037 40.1895 96.4096 40.1895C96.8369 40.1895 97.2464 40.0817 97.6256 39.8678C98.0279 39.6431 98.3448 39.3232 98.5656 38.9188C98.7774 38.5324 98.886 38.119 98.886 37.6894C98.886 37.2598 98.7774 36.8428 98.5638 36.4528M34.1774 13.635C34.3768 13.3258 35.3595 12.5727 35.8865 12.1683C36.9244 11.3739 37.3534 11.0306 37.5493 10.5471C37.6899 10.2002 37.7077 9.86585 37.6668 9.56569C38.7883 8.74608 41.0262 7.18056 42.7638 6.41307C43.305 6.17402 43.6895 6.06078 43.9441 6.00866C43.9352 6.02843 43.9263 6.05 43.9156 6.06977C43.4082 7.15719 41.2861 11.3271 39.3972 15.0082C39.1444 15.116 38.9201 15.2149 38.7296 15.3065C38.1492 15.5833 37.6792 15.8206 37.3018 16.0129C36.9778 16.1765 36.6449 16.3454 36.4312 16.4371C36.2532 16.3418 36.0129 16.2627 35.6977 16.2627C35.3328 16.2627 34.804 16.4065 34.3572 17.0949C34.1453 17.4221 33.9406 17.8984 33.7946 18.4394V16.8469C33.7946 16.3149 33.483 15.8583 33.0362 15.6462C33.0397 15.6157 33.0415 15.5833 33.0433 15.5528C33.0576 15.3011 33.0166 15.0495 32.9276 14.8105C33.394 14.5876 33.8195 14.1886 34.1756 13.635M29.0786 14.3485C29.0376 14.3845 28.9985 14.4186 28.9629 14.4492C28.986 14.4096 29.0074 14.3701 29.0305 14.3306C29.0465 14.3359 29.0626 14.3431 29.0786 14.3485ZM56.7569 33.5716H54.9339C54.3464 33.5716 53.8479 34.0047 53.7607 34.5907C53.677 35.1551 53.4759 35.8273 53.0005 35.8273C52.8919 35.8273 52.6676 35.8273 52.4148 35.2791C52.162 34.7309 52.0231 33.8969 52.0231 32.9281C52.0231 30.7443 52.6231 29.9301 53.0005 29.9301C53.3477 29.9301 53.556 29.9822 53.7714 31.0462C53.8853 31.6034 54.3696 32.0025 54.9321 32.0025H56.7552C56.7765 32.0025 56.7997 32.0007 56.821 31.9989V33.5734C56.7997 33.5734 56.7765 33.5698 56.7552 33.5698" fill="white"/>
<path d="M53.0005 28.733C54.5067 28.733 54.7862 30.0864 54.9322 30.8054H56.7552C56.6573 29.0331 55.5998 26.5599 52.9881 26.5599C50.7396 26.5599 48.9771 28.7006 48.9771 32.8957C48.9771 37.0908 50.6416 39.1974 52.9631 39.1974C55.1511 39.1974 56.3902 37.3748 56.7552 34.7668H54.9322C54.7132 36.2371 54.0082 37.0243 53.0005 37.0243C51.457 37.0243 50.8375 35.0849 50.8375 32.9281C50.8375 29.5346 52.1246 28.7312 53.0005 28.7312" fill="#CD2F27"/>
<path d="M61.6048 29.7522C60.6808 29.7522 59.9527 30.4046 59.7337 31.1397H59.7088V26.8763H58.0068V38.8793H59.7088V33.7801C59.7088 32.4267 60.2927 31.7239 61.0458 31.7239C62.1282 31.7239 62.1514 32.8275 62.1514 33.4781V38.8775H63.8534V32.725C63.8534 30.7695 62.8688 29.7486 61.6048 29.7486" fill="#CD2F27"/>
<path d="M67.1824 26.7612H65.4805V28.9343H67.1824V26.7612Z" fill="#CD2F27"/>
<path d="M67.1824 29.9875H65.4805V38.881H67.1824V29.9875Z" fill="#CD2F27"/>
<path d="M71.5336 31.7256C72.324 31.6591 72.5911 32.5776 72.6641 33.1635H74.3892C74.2308 30.3884 72.5537 29.7539 71.5336 29.7539C69.3456 29.7539 68.4341 31.8101 68.4341 34.6859C68.4341 36.5588 68.9931 39.1165 71.4232 39.1165C73.8533 39.1165 74.3144 36.5588 74.3767 35.6385H72.6516C72.6516 36.0555 72.3597 37.1933 71.4962 37.1933C70.209 37.1933 70.1841 35.2701 70.1841 34.3013C70.1841 33.1977 70.4636 31.7274 71.5336 31.7274" fill="#CD2F27"/>
<path d="M81.2505 29.9875H79.1604L77.0205 33.363V26.8781H75.3203V38.881H77.0205V36.0717L77.7255 35.0687L79.269 38.881H81.311L78.9646 33.4313L81.2505 29.9875Z" fill="#CD2F27"/>
<path d="M84.6171 29.7521C81.7846 29.7521 81.5176 33.1797 81.5176 34.2491C81.5176 37.9104 82.9151 39.1147 84.7381 39.1147C85.8437 39.1147 87.1327 38.4119 87.5813 36.273H85.8312C85.6977 36.9075 85.2117 37.2418 84.7381 37.2418C83.3655 37.2418 83.2676 35.7374 83.2195 35.0687H87.6543V34.6518C87.6543 30.5897 85.8918 29.7539 84.6171 29.7539M83.2676 33.5482C83.3655 32.3781 83.7892 31.6753 84.5922 31.6753C85.1387 31.6753 85.8081 32.1102 85.9042 33.5482H83.2676Z" fill="#CD2F27"/>
<path d="M92.3807 29.7521C91.1541 29.7521 90.6681 30.7551 90.4366 31.2907H90.4117V29.9858H88.7827V38.8793H90.4847V33.7801C90.4847 32.4266 91.0686 31.7239 91.8217 31.7239C92.9041 31.7239 92.9273 32.8275 92.9273 33.4781V38.8775H94.6292V32.725C94.6292 30.7694 93.6447 29.7485 92.3807 29.7485" fill="#CD2F27"/>
<path d="M88.1756 11.5877C88.229 11.5877 88.2557 11.6057 88.2557 11.6416C88.2557 11.7135 88.172 11.8429 88.0029 12.0281C87.8676 12.1898 87.8017 12.3139 87.8017 12.3983C87.8017 12.4343 87.8213 12.4522 87.8622 12.4522C87.9495 12.4522 88.156 12.3156 88.4818 12.0424C88.8076 11.7692 89.1013 11.4475 89.3648 11.079C89.6265 10.7106 89.7582 10.3637 89.7582 10.0384C89.7582 9.71303 89.6212 9.55127 89.3452 9.55127C89.1512 9.55127 88.9251 9.64833 88.6687 9.83885C88.4123 10.0312 88.1987 10.2594 88.0224 10.5237C87.848 10.7879 87.7607 11.0179 87.7607 11.2174C87.7607 11.4637 87.8978 11.5859 88.1738 11.5859" fill="#CD2F27"/>
<path d="M92.0249 19.1781C92.0249 19.1781 92.6569 18.6874 92.6391 18.54C92.6213 18.3981 92.5092 18.1033 92.0819 18.5167C92.0427 18.5544 92.0018 18.5922 91.9591 18.6245C91.5425 18.9319 91.1757 19.1853 90.8606 19.3812C90.5277 19.5879 90.2019 19.7533 89.8814 19.8773C89.5628 19.9995 89.2637 20.0624 88.9877 20.0624C88.8471 20.0624 88.6548 20.0445 88.4127 20.0085C89.018 19.6598 89.5129 19.3201 89.8957 18.9858C90.2784 18.6533 90.5722 18.3046 90.7734 17.9415C90.9745 17.5784 91.076 17.1992 91.076 16.802C91.076 16.5378 91.0493 16.3005 90.9959 16.0902C90.9425 15.8799 90.8659 15.6211 90.7698 15.3119C90.6719 15.0028 90.6238 14.7907 90.6238 14.6775C90.6238 14.5463 90.6381 14.4438 90.6648 14.3719L90.6042 14.2012C90.4422 14.1293 90.2909 14.0933 90.1503 14.0933C89.5859 14.0933 89.2281 14.4618 89.0803 15.2005C88.4323 15.8512 87.2501 16.9835 85.5357 18.5976C84.877 19.1548 84.3696 19.552 84.0118 19.7892C83.6557 20.0265 83.3584 20.1451 83.1234 20.1451C82.7335 20.1451 82.5377 19.8755 82.5377 19.3345C82.5377 18.7396 82.7157 18.0925 83.0718 17.3933C83.4278 16.6941 83.8551 15.9842 84.3536 15.2634C84.8503 14.5427 85.3559 13.8039 85.8669 13.0436C86.3778 12.2833 86.6342 11.7477 86.6342 11.4368C86.6342 11.275 86.5719 11.1294 86.4472 11C86.3226 10.8706 86.1855 10.8059 86.0378 10.8059C85.9025 10.8059 85.6781 10.9892 85.3612 11.3559C85.0443 11.7226 84.6527 12.2798 84.1862 13.0311C83.718 13.7824 83.2267 14.6397 82.7086 15.6067C82.3917 15.2347 82.0695 15.0477 81.7401 15.0477C81.336 15.0477 80.7307 15.2436 79.9242 15.6337C79.1177 16.0237 78.3967 16.5144 77.7647 17.1057C77.2128 17.6216 76.903 18.1338 76.8318 18.6425C76.3031 19.0793 75.9417 19.3758 75.7458 19.534C75.5304 19.7083 75.3257 19.8539 75.1298 19.9708C74.9358 20.0876 74.7542 20.1469 74.5851 20.1469C74.2557 20.1469 73.9976 20.0265 73.8142 19.7856C73.629 19.5466 73.5365 19.2338 73.5365 18.8492C73.5365 18.682 73.5703 18.4412 73.6379 18.1284C74.9963 16.8613 76.0556 15.6211 76.8158 14.4043C77.576 13.1874 77.9552 12.1629 77.9552 11.3289C77.9552 11.0593 77.932 10.8688 77.884 10.7574C77.8377 10.6459 77.7433 10.5902 77.6009 10.5902C77.487 10.5902 77.3285 10.6441 77.1273 10.752C76.6289 11.0108 76.0894 11.4619 75.509 12.1072C74.9269 12.7525 74.3661 13.5092 73.8249 14.3773C73.2837 15.2454 72.8511 16.101 72.5288 16.944C72.2831 17.5856 72.1318 18.159 72.0731 18.6677C71.8523 18.815 71.7045 18.9139 71.6315 18.9624C71.5443 19.0199 71.4446 19.0739 71.3342 19.1242C71.2239 19.1745 71.1099 19.1997 70.996 19.1997H70.8447L70.6631 19.0379C70.9248 18.6533 71.1331 18.2435 71.2826 17.8049C71.4339 17.3664 71.5105 17.0033 71.5105 16.7157C71.5105 16.4281 71.4624 16.2196 71.3698 16.1082C71.2773 15.9967 71.101 15.9177 70.8447 15.8691C70.9995 15.7128 71.0761 15.5744 71.0761 15.4557C71.0761 15.2994 70.9853 15.1789 70.8037 15.0909C70.6221 15.0046 70.3729 14.9597 70.0578 14.9597C69.6145 14.9597 69.1338 15.0837 68.6157 15.3335C68.0976 15.5833 67.6116 15.9105 67.1576 16.3149C66.7037 16.7211 66.3334 17.1561 66.0485 17.6252C65.8189 18.0008 65.6836 18.3477 65.639 18.6677C64.6884 19.3525 64.0154 19.6958 63.6237 19.6958C63.2321 19.6958 63.038 19.5556 63.038 19.2716C63.038 19.0667 63.1591 18.7647 63.4012 18.3621C63.6433 17.9595 63.9424 17.5874 64.2985 17.2459C64.6011 16.9637 64.8148 16.7499 64.9394 16.6025C65.064 16.4551 65.1263 16.3185 65.1263 16.1927C65.1263 15.9949 65.0889 15.7972 65.0159 15.5977C64.9412 15.4 64.8468 15.2742 64.7329 15.2185C64.6795 15.1951 64.5815 15.1825 64.4409 15.1825C64.0777 15.1825 63.2036 15.2796 61.8185 15.4701C62.0268 15.1574 62.1319 14.9507 62.1319 14.8482C62.1319 14.735 62.0642 14.6775 61.9307 14.6775C61.8434 14.6775 61.7526 14.699 61.6583 14.7404C61.4162 14.8249 61.1473 15.01 60.8518 15.2994C60.5563 15.5869 60.307 15.8979 60.1059 16.2268C59.9047 16.5575 59.8032 16.8307 59.8032 17.0464C59.8032 17.2387 59.8513 17.3825 59.9492 17.4778C60.0471 17.5748 60.202 17.6557 60.4174 17.7204C60.2287 17.99 59.9528 18.3172 59.5896 18.7018C59.5896 18.7018 58.0122 19.791 57.5725 19.791C57.1328 19.791 56.8871 19.5682 56.8871 19.1242C56.8871 18.8546 56.953 18.6263 57.0829 18.4394C57.2129 18.2525 57.4425 17.9631 57.7683 17.5695C58.0941 17.1758 58.2579 16.908 58.2579 16.7642C58.2579 16.6923 58.2383 16.6097 58.1974 16.5162C58.1564 16.4227 58.0995 16.3023 58.0265 16.1513C57.9517 16.0021 57.8912 15.8781 57.8449 15.7829C58.0799 15.711 58.2455 15.6499 58.3398 15.5977C58.4342 15.5474 58.4805 15.4665 58.4805 15.3587C58.4805 15.2922 58.4448 15.1915 58.3736 15.0531C58.3024 14.9147 58.2081 14.7943 58.087 14.6882C57.9659 14.584 57.8342 14.5301 57.6936 14.5301C57.1684 14.5301 56.426 14.7314 55.4646 15.134C54.5033 15.5366 53.5116 16.1513 52.488 16.9799C51.3005 17.7007 50.8768 18.7126 50.8946 19.4513C50.9106 20.1721 51.4376 21.4392 52.5965 21.4087C52.6019 21.4087 52.6055 21.4087 52.6108 21.4087C52.6286 21.4087 52.6482 21.4051 52.666 21.4051C52.6731 21.4051 52.6784 21.4051 52.6856 21.4051C52.9829 21.3745 53.3514 21.1732 53.7911 20.794C54.2683 20.3824 54.9982 19.6904 55.9809 18.718C55.5981 19.6185 55.4059 20.3069 55.4059 20.7796C55.4059 21.0798 55.4611 21.3062 55.5714 21.459C55.6818 21.6118 55.8687 21.7034 56.1322 21.6891C57.1328 21.6351 59.7836 19.1314 59.7836 19.1314C60.4833 18.5652 61.0245 17.9415 61.4073 17.2585C61.5479 17.2351 61.7509 17.201 62.0126 17.1597C62.2743 17.1183 62.5235 17.077 62.7585 17.0374C62.9935 16.9979 63.2054 16.9601 63.3941 16.9242C63.038 17.3088 62.7158 17.6935 62.4309 18.0817C62.1443 18.4682 61.9289 18.8276 61.7811 19.1583C61.6334 19.4891 61.5586 19.782 61.5586 20.0409C61.5586 20.4794 61.6529 20.8137 61.8417 21.0456C62.0304 21.2775 62.2654 21.3925 62.5484 21.3925C62.7906 21.3925 63.0665 21.3044 63.3763 21.1265C63.6861 20.9503 64.0225 20.7113 64.3857 20.4111C64.7222 20.1325 65.1441 19.7569 65.6497 19.2878C65.6871 19.6095 65.7708 19.9097 65.9043 20.1865C66.0895 20.5711 66.3369 20.8749 66.6467 21.0959C66.9565 21.3188 67.2983 21.4284 67.6757 21.4284C68.3415 21.4284 69.1106 20.9665 69.9865 20.0409C70.4904 20.0642 70.8767 20.0175 71.1473 19.8971C71.3841 19.791 71.6885 19.5933 72.0588 19.3021C72.0784 19.9762 72.2137 20.528 72.463 20.9557C72.7353 21.4213 73.111 21.6531 73.5881 21.6531C74.4373 21.6531 75.5304 20.8784 76.8656 19.3345C76.903 19.5753 76.9636 19.8144 77.0579 20.0498C77.2128 20.4399 77.3997 20.7616 77.6169 21.0132C77.8359 21.2649 78.0317 21.3907 78.208 21.3907C78.3148 21.3907 78.516 21.2865 78.8079 21.0798C79.0999 20.8731 79.4809 20.5585 79.9473 20.1379C80.4138 19.7173 80.9443 19.2069 81.5354 18.6065C81.3734 19.2734 81.2933 19.8953 81.2933 20.4704C81.2933 20.8964 81.3627 21.2182 81.4998 21.4338C81.6369 21.6495 81.8647 21.7574 82.1798 21.7574C82.9632 21.7574 84.0759 20.927 85.5179 19.2698C85.5357 19.5232 85.5695 19.7371 85.6194 19.9115C85.6959 20.1757 85.8936 20.4525 86.2087 20.74C86.7463 21.2199 87.332 21.4608 87.9641 21.4608C88.4554 21.4608 89.0394 21.2667 89.7194 20.8802C90.3977 20.4938 91.1686 19.924 92.0303 19.1745M75.0836 14.2299C75.5945 13.3564 76.0556 12.7704 76.4651 12.4685C76.579 12.402 76.6573 12.3696 76.6965 12.3696C76.8033 12.3696 76.8585 12.4379 76.8585 12.5763C76.8585 12.7561 76.7766 13.0239 76.6111 13.378C76.4455 13.732 76.2194 14.1311 75.9292 14.575C75.6408 15.019 75.3328 15.436 75.007 15.826C74.6812 16.216 74.3429 16.5647 73.994 16.8703C74.2094 15.9824 74.5726 15.0998 75.0836 14.2263M55.21 18.4268C54.6243 19.0235 53.9798 19.5088 53.2731 19.8809C53.0844 19.9654 52.9544 20.0067 52.8796 20.0067C52.7514 20.0067 52.6517 19.9456 52.577 19.8216C52.5022 19.6994 52.4666 19.5412 52.4666 19.3489C52.4666 18.8204 52.8387 18.3082 53.5811 17.8085C54.3234 17.3106 55.5697 16.7031 57.3179 15.9896C56.4972 17.0159 55.794 17.8283 55.21 18.425M69.3528 17.5623C69.1783 17.9559 69.0911 18.3405 69.0911 18.7198C69.0911 18.9786 69.148 19.2482 69.262 19.5304C68.5819 19.9744 68.0994 20.1972 67.8092 20.1972C67.1897 20.1972 66.8817 19.9995 66.8817 19.6023C66.8817 19.5484 66.9654 19.1853 67.1345 18.5131C67.2289 18.2615 67.414 18.0098 67.69 17.7618C67.9659 17.5119 68.3024 17.2657 68.6994 17.0231C69.0964 16.7804 69.5735 16.509 70.1325 16.207C69.7889 16.7175 69.5308 17.1686 69.3563 17.5623M82.0036 17.1021C81.8754 17.3088 81.7205 17.4976 81.5389 17.6647C81.3573 17.8319 81.0689 18.0655 80.6755 18.3621C80.282 18.6587 80.0275 18.8528 79.9135 18.9427C79.8334 19.002 79.6589 19.1386 79.3937 19.3471C79.1284 19.5574 78.9344 19.6994 78.8133 19.7713C78.6922 19.8432 78.5854 19.8791 78.4911 19.8791C78.3896 19.8791 78.3059 19.8467 78.2383 19.7802C78.1706 19.7137 78.1368 19.6311 78.1368 19.5286C78.1368 19.3615 78.1937 19.1116 78.3077 18.7809C78.4216 18.4502 78.5534 18.2255 78.7011 18.1051C78.8685 17.9559 79.3563 17.6809 80.1645 17.2819C80.971 16.8829 81.6742 16.5935 82.2724 16.4137C82.219 16.6654 82.1282 16.8954 82 17.1021M87.859 19.6562C87.5902 19.277 87.3819 19.0235 87.2341 18.8905C87.0864 18.7593 86.8104 18.6533 86.4063 18.576C87.7718 17.3807 88.6619 16.5737 89.0803 16.1531L89.2619 17.4688C89.269 17.5173 89.2744 17.5659 89.2761 17.6126C89.2797 17.6611 89.2815 17.715 89.2815 17.7744C89.2815 18.2794 89.1586 18.6766 88.9129 18.9678C88.6673 19.259 88.3165 19.4891 87.859 19.6562Z" fill="#CD2F27"/>
<path d="M49.0395 13.466C50.1344 10.8346 52.2476 5.9152 52.4576 4.95C52.7015 3.83023 52.5734 2.62778 52.1532 2.64755C51.9823 2.65654 51.6405 2.90278 50.6969 4.82239C49.2282 8.30392 47.3357 12.6302 46.807 13.8363C45.5981 14.1203 44.2095 14.5355 42.9223 14.9686C44.343 12.6248 46.4349 9.32484 47.0366 7.02239C47.8823 3.78889 47.0366 0.864545 43.6701 1.22762C40.3035 1.58889 33.6203 5.67615 32.253 7.23628C30.8857 8.79641 30.7237 12.5404 31.2774 13.3438C31.8293 14.149 32.6108 13.8686 33.1805 12.9825C33.7502 12.0964 36.2711 10.5363 36.4492 10.0923C36.6272 9.64837 36.2373 9.13971 36.2373 9.13971C36.2373 9.13971 39.7178 6.44723 42.2868 5.31487C44.8557 4.18252 45.7673 4.90507 44.9857 6.57843C44.3092 8.02892 41.0922 14.3 40.2465 15.9482C39.8478 16.11 39.5024 16.2592 39.2318 16.3886C37.4515 17.2387 36.7429 17.706 36.305 17.6935C35.8652 17.6809 36.0361 17.4598 35.6961 17.4598C35.1834 17.4598 34.4161 19.836 34.9145 20.9935C35.1869 21.6226 36.1999 21.6333 37.2503 21.4554C36.9672 22.9275 36.248 23.5242 35.7815 25.1149C35.3098 26.7235 36.7091 27.4299 36.953 27.3814C37.1969 27.3328 37.7167 26.7253 37.8965 26.134C38.0746 25.5427 38.5802 24.2953 39.068 23.3912C39.3137 22.9382 39.7837 21.8257 40.2839 20.607C41.2346 20.2673 42.8013 19.7137 44.5923 19.3237C44.2789 20.6556 43.9816 23.0479 43.8641 24.6044C43.7181 26.542 44.8557 27.4784 45.2296 27.3814C45.6035 27.2861 47.4746 27.0507 46.677 24.5541C45.9916 22.4062 47.0758 19.64 47.3909 18.9103C48.1849 18.8564 48.9843 18.8636 49.7587 18.9588C50.4779 17.21 52.0268 14.3539 52.1497 14.0574C52.2636 13.7806 51.2595 13.2845 49.0377 13.4606" fill="#CD2F27"/>
<path d="M24.263 38.987V38.6078L20.4905 38.455C20.4157 38.4514 20.3499 38.5035 20.3356 38.5772L20.3036 38.7426C20.2858 38.8361 20.3552 38.9241 20.4496 38.9259L24.263 38.9888V38.987Z" fill="#156D37"/>
<path d="M22.0552 40.274C22.0552 40.1715 21.9573 40.1014 21.8611 40.1338C21.6742 40.1985 21.4 40.2901 21.2505 40.3117C21.0101 40.3495 20.9371 40.096 20.5295 40.1266C20.1218 40.1589 18.5996 40.2165 18.5996 40.2165V40.4968H21.9092C21.9911 40.4968 22.0552 40.4303 22.0552 40.3495V40.274Z" fill="#156D37"/>
<path d="M25.3808 42.5136C25.1921 42.5549 24.9838 42.7041 24.8271 42.74C24.6704 42.7778 24.5974 42.5657 24.22 42.5657C23.9209 42.5657 22.7335 42.5927 22.2563 42.6034C22.1442 42.6052 22.0552 42.6987 22.0552 42.8119V42.9144H25.4858C25.4858 42.9144 25.5695 42.4704 25.3808 42.5136Z" fill="#156D37"/>
<path d="M5.50038 28.458H6.02201C6.04159 28.458 6.06117 28.4544 6.07898 28.449L6.77864 28.2261C6.82849 28.2099 6.88189 28.2153 6.92818 28.2405L7.10799 28.3393C7.1347 28.3537 7.16496 28.3627 7.19701 28.3627L12.6038 28.4562V27.9924H5.50038C5.39356 27.9924 5.30811 28.0787 5.30811 28.1865V28.2638C5.30811 28.3717 5.39356 28.458 5.50038 28.458Z" fill="#156D37"/>
<path d="M28.7084 12.925C28.7084 12.925 29.7125 13.3258 29.8318 13.333C29.951 13.3402 30.1736 13.0311 30.0828 12.925C29.992 12.819 29.1339 12.5386 28.9113 12.5242C28.6888 12.5098 28.6354 12.8963 28.7084 12.925Z" fill="#156D37"/>
<path d="M30.7928 15.9626C31.2877 16.0866 31.8307 16.0004 31.8592 15.4863C31.8877 14.9723 31.2254 14.5085 30.8266 14.62C30.4296 14.7332 29.7246 15.3659 29.7246 15.3659C29.7246 15.3659 30.2961 15.8368 30.7928 15.9626ZM30.953 14.9795C31.2183 14.9866 31.4907 15.409 31.4195 15.5636C31.35 15.7182 30.6522 15.5708 30.3798 15.3731C30.3798 15.3731 30.686 14.9723 30.9512 14.9795" fill="#156D37"/>
<path d="M33.9373 32.0384C34.0423 31.9863 33.8536 31.4992 33.3302 31.4992C32.8068 31.4992 30.2556 31.4776 30.1185 31.4992C29.9832 31.5208 29.9209 31.8263 29.9209 31.8263C29.9209 31.8263 33.8322 32.0906 33.9355 32.0366" fill="#156D37"/>
<path d="M31.0727 32.387C29.7232 32.5147 28.8455 33.2426 29.2425 33.9598C29.6395 34.6787 30.875 34.3408 31.3967 33.9076C31.9201 33.4745 32.7141 33.7495 32.9242 33.8555C33.1342 33.9616 33.1431 33.7279 33.1431 33.7279C33.2375 33.4745 32.4221 32.2594 31.0727 32.387ZM30.7789 33.7495C29.9012 34.224 29.4134 33.7603 29.6466 33.2947C29.8798 32.8292 31.6993 32.556 32.4114 33.2947C32.4114 33.2947 31.6584 33.2732 30.7789 33.7495Z" fill="#156D37"/>
<path d="M34.4517 34.4361C34.3146 34.3139 34.1402 34.251 33.9657 34.251C33.825 34.251 33.6826 34.2923 33.5633 34.384C33.4441 34.4757 33.355 34.6194 33.323 34.7938C33.2678 35.0922 33.1236 35.3222 32.9919 35.4768C32.926 35.5541 32.8637 35.6134 32.8192 35.6511C32.796 35.6709 32.7782 35.6853 32.7675 35.6925L32.7551 35.7015H32.7533V35.7033L32.6572 35.768C32.5521 35.8399 32.5913 36.0052 32.7177 36.0178L32.8334 36.0304C32.8334 36.0304 32.942 36.0412 33.0987 36.0412C33.3141 36.0412 33.6274 36.0214 33.9283 35.9172C34.0778 35.865 34.2256 35.7895 34.3538 35.6799C34.4802 35.5703 34.5852 35.4229 34.6404 35.2395C34.6689 35.1425 34.6831 35.0508 34.6831 34.9609C34.6831 34.7399 34.5906 34.5511 34.4535 34.4289M34.2986 35.1407C34.263 35.2539 34.2042 35.3402 34.1206 35.4121C33.996 35.5199 33.8161 35.5936 33.6256 35.6332C33.5099 35.6583 33.396 35.6709 33.2892 35.6781C33.4423 35.4894 33.6078 35.2162 33.6737 34.8585C33.6933 34.7614 33.7307 34.7075 33.7805 34.668C33.8304 34.6302 33.8945 34.6087 33.9675 34.6087C34.0565 34.6087 34.1508 34.6428 34.2167 34.7021C34.2826 34.7632 34.3253 34.8423 34.3271 34.9645C34.3271 35.0149 34.32 35.0724 34.2986 35.1389" fill="#156D37"/>
<path d="M37.0242 36.3252H34.8594V36.6847H38.2384V36.3252H37.0242Z" fill="#156D37"/>
<path d="M30.8517 37.2868C29.9634 37.8673 29.6376 38.0794 29.4809 38.0057C29.3242 37.9321 27.7807 35.254 27.7647 35.2288C27.7665 35.2144 27.8875 34.3121 27.4816 33.3074C27.0828 32.3152 25.0675 31.3626 24.9839 31.3231C24.9821 31.3231 24.9821 31.3195 24.9821 31.3177V31.1469C24.9821 31.1469 24.9839 31.1415 24.9874 31.1415H26.0805C26.3939 31.1415 26.5612 30.9618 26.5612 30.5286C26.5612 30.1188 26.579 29.5472 26.5826 29.4879C26.5826 29.4843 26.5844 29.4825 26.5879 29.4825C26.6164 29.4825 26.7855 29.479 27.1167 29.3459C27.3534 29.2507 27.5689 29.1159 27.9516 29.0494C27.9552 29.0494 27.9587 29.0494 27.9587 29.0548C27.9712 29.4214 28.0033 30.4819 28.0033 30.8917C28.0033 31.3914 28.5338 31.7221 28.9112 31.6071C29.2869 31.4902 29.4346 31.0337 29.399 30.5897C29.3723 30.2482 29.2459 29.4502 29.1889 29.0997C29.1889 29.0961 29.1925 29.0925 29.1961 29.0943C29.7978 29.274 29.9438 29.7108 30.161 29.833C30.4227 29.9804 30.4441 29.5688 30.5794 29.3262C30.7147 29.0835 31.0814 28.6827 31.2078 28.8409C31.3324 28.9991 31.3431 29.3154 31.9502 29.4106C32.5573 29.5059 32.6089 30.0757 33.0166 30.3183C33.4243 30.561 33.8017 30.3183 33.8854 30.0649C33.9655 29.8241 33.5898 29.3046 33.5542 29.2561C33.5542 29.2543 33.5542 29.2507 33.5542 29.2489L33.7127 29.0979C33.7127 29.0979 33.718 29.0961 33.7216 29.0979C33.7465 29.1339 33.9121 29.3639 34.3429 29.4412C34.8094 29.5257 35.0479 28.9973 35.1619 28.8391C35.2758 28.6827 34.918 28.2873 34.8806 28.0644C34.8806 28.0608 34.8806 28.059 34.8859 28.059C35.1743 28.077 36.0306 27.9386 36.0093 27.4353C35.9879 26.9285 35.7066 26.7379 35.1939 26.8116C34.6812 26.8853 34.0545 26.6948 33.9797 26.5582C33.9067 26.4216 34.4497 26.3892 35.1405 26.3371C35.8312 26.285 36.0093 26.0729 36.0093 25.8195C36.0093 25.566 35.7903 25.1652 35.0995 25.3018C34.4088 25.4384 33.8124 25.185 33.0486 24.8902C32.2849 24.5955 31.5532 25.3971 31.1134 25.0376C30.6862 24.6368 30.1005 24.5415 29.7248 24.6386H29.7212C29.5219 24.484 29.2103 24.4157 29.0216 24.5847C28.97 24.6314 28.9166 24.644 28.8649 24.6386V24.2683C28.8649 24.2683 28.8649 24.2629 28.8685 24.2629C29.1142 24.2162 29.6287 24.1066 30.2144 23.9071C30.6239 23.7687 31.0672 23.5871 31.482 23.3517C31.8968 23.1162 32.2813 22.8268 32.568 22.4674L32.6071 22.4188V16.8487C32.6071 16.7319 32.4647 16.6726 32.3846 16.7571L32.3009 16.8433L32.2973 16.8469C32.2742 16.8703 32.1122 17.0357 31.7989 17.3053C32.0997 17.0536 31.9787 16.8218 31.4286 16.9242C30.8784 17.0267 29.1854 17.1489 28.7367 17.1687C28.313 17.1884 28.3451 17.5803 28.3486 17.6252C28.3486 17.627 28.3504 17.6288 28.3522 17.6288C28.4056 17.636 29.0038 17.7025 29.5895 17.6288C30.1645 17.5551 31.3378 17.5551 31.7312 17.3484C31.7366 17.3448 31.7419 17.352 31.7366 17.3574C31.1241 17.8768 30.0025 18.7396 28.3041 19.7012C28.3006 19.703 28.2952 19.7012 28.2952 19.6958V18.8079C28.2952 18.7036 28.2009 18.6263 28.1012 18.6461L26.9191 18.8852C26.8407 18.9013 26.7855 18.9714 26.7891 19.0523L26.8389 20.4902C26.8389 20.4902 26.8389 20.492 26.8389 20.4938L26.5737 20.8551V23.0695C26.5737 23.0695 26.5737 23.0713 26.5737 23.0731L27.5333 24.2324C27.5333 24.2324 27.5333 24.2342 27.5333 24.236V24.4714C27.5333 24.4714 27.5315 24.4768 27.5279 24.4768C26.7499 24.5577 25.7512 23.6033 25.7245 23.2205C25.6978 22.8304 25.6978 22.9149 25.4592 22.4979C25.4592 22.4979 25.4592 22.4961 25.4592 22.4943C25.4895 21.7718 25.2153 21.6208 24.8842 21.583C24.8806 21.583 24.8788 21.5794 24.8788 21.5758C24.8966 21.3781 25.2527 21.2254 25.5269 20.9054C25.7903 20.5999 25.817 20.1164 25.8206 20.0642C25.8206 20.0624 25.8206 20.0606 25.8242 20.0589C25.8473 20.0571 25.9701 20.0427 26.1802 19.9906C26.4152 19.933 26.547 19.7102 26.5933 19.2626C26.6395 18.8294 26.4401 18.425 26.4259 18.3981C26.4259 18.3981 26.4259 18.3969 26.4259 18.3945C26.4401 18.3747 26.6039 18.1374 26.6342 17.9092C26.6662 17.6719 26.2675 17.4598 26.0431 17.5982C25.8188 17.7348 25.7298 18.1105 25.8865 18.2687C26.0431 18.4268 26.3369 18.6964 26.2835 19.304C26.2319 19.9115 25.7494 19.7892 25.7191 19.6634C25.6871 19.5358 25.5304 19.5682 25.4574 19.6526C25.3844 19.7371 24.9483 19.6293 24.9198 19.7281C24.8913 19.827 24.9892 19.9744 25.3168 19.9888C25.6444 20.0031 25.8544 20.2781 24.8219 20.2206C23.727 20.1667 23.7946 19.0685 23.8035 18.9732C23.8035 18.9696 23.8017 18.9678 23.7982 18.9678C23.7216 18.9894 22.9561 19.2033 22.9881 19.2824C23.022 19.3615 23.4955 19.3093 23.5489 19.304C23.5525 19.304 23.5543 19.304 23.5543 19.3075C23.5596 19.3579 23.6202 19.7964 23.9157 20.0481C24.229 20.3159 25.1156 20.4147 25.2545 20.4004C25.3933 20.386 25.3168 20.6178 24.7524 20.7383C24.1916 20.8569 23.5133 20.2674 23.4297 19.5969C23.4297 19.5915 23.4225 19.5897 23.419 19.5951C22.9828 20.199 23.4866 20.7041 23.8605 20.8263C23.8641 20.8263 23.8641 20.8317 23.8605 20.8353C23.6273 21.0941 23.9388 21.3853 24.2984 21.2937C24.6616 21.202 24.8699 20.8227 25.2046 20.758C25.5393 20.6951 25.0373 20.927 24.8486 21.1517C24.6598 21.3763 24.5762 21.6873 24.1097 21.7843C23.6433 21.8832 23.2944 21.3548 22.9935 21.3134C22.6962 21.2721 22.114 20.6035 21.8167 19.5933C21.8167 19.5879 21.806 19.5879 21.806 19.5933C21.7491 20.9719 22.8493 21.6729 23.1822 21.8329C23.5169 21.9946 23.0362 22.453 22.819 22.5087C22.6018 22.5644 22.4078 22.1294 22.3383 21.7268C22.2725 21.3512 21.758 21.4446 21.6903 21.4572C21.6867 21.4572 21.6832 21.4572 21.685 21.4518C21.6956 21.4141 21.7437 21.2182 21.6761 20.9162C21.6048 20.6035 21.2452 20.5172 21.1936 20.5064C21.19 20.5064 21.1883 20.5028 21.19 20.4992C21.2061 20.4722 21.2719 20.3392 21.2808 19.9762C21.2915 19.5807 20.9355 19.0307 20.907 18.9858C20.907 18.984 20.907 18.9822 20.907 18.9804C20.923 18.9535 21.0619 18.7216 21.0423 18.4124C21.0227 18.1051 20.6702 17.8714 20.6275 17.8445C20.6257 17.8445 20.6239 17.8409 20.6275 17.8373C20.6435 17.8121 20.7378 17.6881 21.012 17.7366C21.3147 17.7888 21.2737 17.5048 21.2417 17.0608C21.2096 16.6169 21.012 16.2592 20.834 16.1208C20.6559 15.9842 20.7396 15.5726 21.117 15.5294C21.4945 15.4863 21.4624 16.0776 21.6921 16.2053C21.8915 16.3149 21.9645 16.2196 21.9805 16.1909C21.9823 16.1873 21.9858 16.1873 21.9876 16.1909C22.0125 16.2322 22.1514 16.4497 22.3508 16.4587C22.5698 16.4695 22.5609 15.7919 22.673 15.4629C22.673 15.4593 22.6784 15.4593 22.6819 15.4629C22.9116 15.6589 23.2231 15.6391 23.6914 15.7847C24.1614 15.9321 23.8373 16.3868 23.994 16.5342C24.1382 16.6708 24.5032 16.3311 24.5619 16.2754C24.5655 16.2718 24.5691 16.2754 24.5691 16.279C24.5708 16.3383 24.5975 16.6115 24.9144 16.6492C25.2331 16.687 25.3168 16.376 25.331 16.3095C25.331 16.3041 25.3381 16.3023 25.3399 16.3077C25.3559 16.3293 25.4058 16.3958 25.5536 16.5755C25.7245 16.784 26.0004 16.775 26.077 16.7678C26.0823 16.7678 26.0841 16.775 26.0805 16.7768C25.9933 16.8379 25.607 17.1219 25.6995 17.2819C25.8046 17.4616 26.1802 17.05 26.4847 17.219C26.7873 17.3879 27.049 17.7258 27.1024 17.4724C27.1505 17.2406 26.7606 16.8325 26.693 16.7642C26.6894 16.7606 26.693 16.7553 26.6965 16.7553C26.7499 16.7571 26.944 16.7642 27.0882 16.7553C27.09 16.7553 27.0917 16.7553 27.0917 16.7517C27.1861 16.5504 27.5226 16.7445 27.5404 16.7535C27.5582 16.7481 27.868 16.642 27.9783 16.0776C28.0887 15.5169 27.5938 15.1142 27.5582 15.0873C27.5582 15.0873 27.5564 15.0855 27.5564 15.0837L27.6116 14.3144C27.6116 14.3144 27.6116 14.3126 27.6116 14.3108C28.5035 13.1425 28.7545 11.6363 27.932 10.7358C27.1327 9.86049 25.4094 9.95575 25.3132 9.96114C25.3114 9.96114 25.3079 9.96114 25.3079 9.95755L24.9643 8.9564C24.9643 8.9564 24.9572 8.95101 24.9554 8.9546L24.1418 9.83173C24.1418 9.83173 24.1382 9.83353 24.1364 9.83353C24.0563 9.80477 22.2974 9.18647 21.6707 9.76343C21.0369 10.3476 20.348 12.499 20.3319 12.5512C20.3319 12.5512 20.3319 12.5512 20.3319 12.5548L20.5758 13.1587C20.5758 13.1587 20.5723 13.1677 20.5669 13.1659C20.0311 12.8693 20.088 13.1245 19.5486 13.2575C19.0038 13.3906 14.4017 13.6314 13.9068 13.6314C13.4119 13.6314 13.9905 14.1023 14.3875 14.1023C14.7845 14.1023 18.0425 13.9046 18.5374 13.9046C19.0323 13.9046 20.4548 13.484 20.5723 13.4499C20.5758 13.4499 20.5794 13.4517 20.5776 13.4571L20.5171 13.777C20.5171 13.777 20.5171 13.7806 20.5135 13.7806C18.9896 14.6541 19.4845 15.8781 19.7284 16.0453C19.9723 16.2142 19.7427 16.5108 19.3029 16.545C18.9219 16.5755 14.5424 16.7211 13.3994 16.7571C13.2926 16.7607 13.241 16.8883 13.314 16.9674L13.5917 17.2657C13.5917 17.2657 13.5935 17.2657 13.5953 17.2657C13.6878 17.2621 17.341 17.1129 17.5422 17.1129C17.7434 17.1129 17.9802 16.9727 17.9908 16.9656C17.9908 16.9656 17.9908 16.9656 17.9926 16.9656H18.573C18.573 16.9656 18.5801 16.9709 18.5766 16.9745C18.2668 17.2441 18.2579 17.8984 18.2579 17.9541C18.2579 17.9559 18.2579 17.9577 18.2543 17.9595C18.2152 17.9739 17.8662 18.1123 17.7131 18.4754C17.56 18.8384 17.738 19.3992 17.7576 19.4621C17.7576 19.4657 17.7576 19.4675 17.7541 19.4675C17.6953 19.4675 17.2431 19.4891 17.2431 20.1218V20.7437C17.2431 20.7437 17.2413 20.749 17.2378 20.749H14.4498C14.2397 20.749 13.6344 21.0834 13.4137 21.0834C13.1929 21.0834 9.79432 21.0097 9.75337 21.042C9.71064 21.0744 9.97235 21.5345 10.0774 21.5417C10.1824 21.5489 11.1438 21.4015 11.4482 21.4968C11.7313 21.5848 16.5648 21.2056 17.2378 21.1535C17.2413 21.1535 17.2431 21.1553 17.2431 21.1589V21.441C17.2431 21.441 17.2431 21.4446 17.2413 21.4464C15.7708 22.3128 16.0094 24.8543 16.0823 25.8788C16.0823 25.8788 16.0823 25.8788 16.0823 25.8806C15.899 26.2832 15.5892 28.0626 15.5714 28.1669C15.5714 28.1705 15.5678 28.1705 15.5661 28.1705C14.1205 27.9242 13.9638 28.3592 13.9513 28.4095C13.9513 28.4131 13.9478 28.4131 13.9442 28.4131C13.4066 28.2981 13.2784 28.3196 12.8422 28.6971C12.8422 28.6971 12.8404 28.6971 12.8386 28.6971C12.1497 28.7294 11.7313 28.9613 11.7313 28.9613V28.787C11.7313 28.787 11.7295 28.7816 11.7259 28.7816H10.0631C9.95633 28.7816 9.86909 28.8696 9.86909 28.9775V28.9883C9.86909 29.0961 9.95633 29.1842 10.0631 29.1842H11.7259C11.7259 29.1842 11.7313 29.186 11.7313 29.1896V29.5688C11.7313 29.5688 11.7295 29.5742 11.7259 29.5742C11.2257 29.5778 10.5331 29.9966 10.777 30.4891C10.777 30.4909 10.777 30.4945 10.7753 30.4963C10.04 30.9276 9.8406 31.7742 10.0026 32.2505C10.0026 32.2541 10.0026 32.2577 9.99727 32.2577C9.59492 32.2541 8.62288 31.0642 8.51962 31.0013C8.41993 30.942 7.86091 31.3267 7.80216 31.368C7.7986 31.3698 7.79682 31.368 7.79504 31.3662C7.7808 31.3249 7.67932 31.066 7.30545 31.066C6.89776 31.066 6.82477 31.341 6.39572 31.341H5.73701C5.45394 31.341 5.29727 31.6376 4.90027 31.6376H1.37883C1.28269 31.6376 1.19189 31.7041 1.17765 31.7994C1.16163 31.9162 1.25064 32.0169 1.36458 32.0169H5.31864C5.64087 32.0169 5.86697 31.8209 5.88299 31.8066C5.88299 31.8066 5.88299 31.8066 5.88655 31.8066H7.32148C7.32148 31.8066 7.3286 31.8138 7.32504 31.8174C6.1803 32.6855 6.12689 33.2409 6.72508 33.568C6.72864 33.568 6.72864 33.5734 6.72508 33.5752C6.41708 33.9023 5.45038 35.6242 4.9608 36.8231C4.46943 38.0273 4.79345 39.104 5.41121 39.0824C6.02898 39.0608 6.06993 38.5432 6.56129 38.1855C7.05265 37.8278 7.77367 37.0675 8.14932 36.5499C8.14932 36.5499 8.1511 36.5481 8.15288 36.5481C8.43417 36.5067 8.58015 36.6757 8.83117 37.2239C9.08042 37.7703 9.55932 38.5054 9.56288 38.5126C9.56288 38.5198 9.57534 38.9799 9.94921 39.4311C10.3248 39.8858 12.0411 41.5754 14.092 41.6275C16.1429 41.6796 17.649 40.1069 17.649 39.1776V37.6067C17.649 37.6067 17.649 37.6049 17.649 37.6031C17.6757 37.5744 18.4448 36.7278 19.1231 36.7386C19.8085 36.7494 21.4179 37.3209 21.4446 37.3299C21.4624 37.3227 22.276 36.9705 22.8155 36.9597C23.3584 36.9489 23.7679 37.0118 24.0812 37.7613C24.3946 38.5108 24.8664 40.0206 25.3257 41.4999C25.785 42.9755 26.5879 43.8724 26.5915 43.876C26.5915 43.8814 26.9386 44.8897 27.5333 44.9221C28.1297 44.9544 29.0287 44.5842 29.5005 43.9713C29.958 43.3763 30.0506 42.7904 30.0542 42.758C30.0542 42.758 30.0542 42.758 30.0542 42.7562C30.0826 42.7437 30.5704 42.5388 31.0369 41.9654C31.5176 41.3741 33.1501 39.1147 33.3584 38.7229C33.5667 38.3329 33.6504 37.7721 33.337 37.4126C33.0237 37.0531 31.7259 36.6955 30.8375 37.276M28.5053 24.4535C28.329 24.5415 28.1279 24.6566 27.9 24.6566C27.8964 24.6566 27.8947 24.6548 27.8947 24.6512V23.5062L27.9 23.499C27.9089 23.4919 27.9303 23.4811 27.9605 23.4703C28.005 23.4559 28.0691 23.4433 28.1386 23.4361C28.208 23.429 28.281 23.4254 28.3486 23.4218H28.3575C28.3789 23.4218 28.3914 23.4254 28.4003 23.429C28.4127 23.4343 28.4216 23.4415 28.4394 23.4685C28.4644 23.5098 28.4875 23.5997 28.4982 23.7165C28.5089 23.8316 28.5089 23.97 28.5089 24.1138V24.4517C28.5089 24.4517 28.5089 24.4553 28.5053 24.4571M27.9445 19.0541V19.8953C27.9445 19.8953 27.9445 19.8989 27.9409 19.9007L27.1986 20.2638C27.1986 20.2638 27.1914 20.2638 27.1914 20.2584L27.154 19.2105C27.154 19.2105 27.1558 19.2051 27.1576 19.2051L27.9356 19.0469C27.9356 19.0469 27.9427 19.0487 27.9427 19.0523M26.9351 20.9719L27.1398 20.6915C27.1398 20.6915 27.1398 20.6915 27.1416 20.6897L27.9445 20.2961L28.208 20.1667C30.3835 18.9642 31.6903 17.8912 32.2457 17.3915C32.2493 17.3879 32.2546 17.3915 32.2546 17.3951V22.2768C32.2546 22.2768 32.2511 22.2822 32.2475 22.2822C31.5211 22.1043 30.8393 22.0342 30.218 22.0342C28.6317 22.0342 27.4478 22.4817 26.9404 22.7118C26.9369 22.7118 26.9333 22.7118 26.9333 22.7064V20.9737C26.9333 20.9737 26.9333 20.9719 26.9333 20.9701M27.0401 23.0713C27.0401 23.0713 27.0383 23.0641 27.0401 23.0623C27.4852 22.8538 28.6477 22.3955 30.2162 22.3955C30.7503 22.3955 31.3306 22.4494 31.9484 22.5824C31.952 22.5824 31.9555 22.5896 31.9502 22.5932C31.7597 22.7585 31.5407 22.9077 31.3075 23.0389C30.7253 23.3696 30.0613 23.5961 29.5432 23.7363C29.2833 23.8064 29.0625 23.8567 28.9059 23.8891C28.8898 23.8927 28.8756 23.8945 28.8631 23.8981C28.8631 23.8603 28.8631 23.8208 28.8596 23.783C28.8507 23.6195 28.8329 23.4649 28.767 23.3229C28.7332 23.2528 28.6833 23.1845 28.6103 23.136C28.5391 23.0874 28.4483 23.0623 28.3593 23.0623H28.3344C28.2044 23.0695 28.0389 23.0749 27.8858 23.118C27.8092 23.1396 27.7309 23.1719 27.6614 23.2348C27.6276 23.2654 27.5956 23.3049 27.5742 23.3535C27.5528 23.4002 27.5404 23.4541 27.5404 23.508V23.6752L27.0419 23.0731L27.0401 23.0713Z" fill="#156D37"/>
<path d="M47.8695 37.5402C47.4511 36.8231 46.3117 36.8123 46.1639 36.5049C45.8079 36.7062 45.2222 36.7476 45.1812 36.5894C45.1403 36.4312 45.1189 36.3252 44.8252 36.2731C44.5314 36.2209 44.0507 35.9873 43.9564 35.8399C43.862 35.6925 45.8186 35.0796 46.4773 34.4559C47.136 33.8322 46.9277 32.619 46.9277 32.619C46.9277 32.619 47.2517 32.3763 47.063 31.9324C46.8743 31.4884 45.2222 29.9463 45.1901 29.6731C45.1581 29.3981 45.9646 29.2722 46.0589 28.9541C46.1533 28.6378 45.9859 28.3735 45.7758 27.9727C46.1212 27.8775 46.8422 27.6456 46.8013 27.3077C46.7604 26.9698 46.5716 27.0758 46.1533 27.0543C45.7349 27.0327 45.5675 26.8008 45.5675 26.8008C46.447 26.6427 46.698 25.9668 46.5129 25.7206C46.3491 25.9597 45.6815 26.2724 45.5355 26.1142C45.3895 25.5966 46.5912 25.4276 46.5075 25.1329C46.4239 24.8363 45.5658 25.1005 44.8554 25.3539C44.0507 24.1389 44.9444 22.5985 44.9444 22.5985C44.9444 22.5985 44.7255 22.3451 44.2697 22.4134C43.8139 22.4817 43.2496 23.1737 43.2549 23.5278C43.1499 23.5709 42.7475 23.0677 42.7475 23.0677L42.1672 23.9753C42.1672 23.9753 41.9838 23.5368 41.8805 23.4685C41.8325 23.5476 41.7132 24.0077 41.5191 24.1605C41.3251 24.3133 41.3927 25.0214 41.3927 25.0214C41.3927 25.0214 41.1631 24.8686 40.7857 25.0214C40.41 25.1742 40.3886 26.1358 40.5774 26.3677C40.7661 26.5995 41.6242 26.6948 41.6242 26.6948C41.7399 27.4874 40.5329 28.8139 40.5329 28.8139C40.5329 28.8139 40.9797 28.8912 41.2646 28.8211C41.5512 28.751 41.9197 28.5317 41.9197 28.5317C41.9197 28.5317 42.2063 28.8211 42.3594 28.8139C42.5125 28.8067 42.5891 28.9271 42.4645 29.0961C42.3381 29.2651 42.4645 29.5742 42.6247 29.8348C42.493 30.0595 42.4645 30.3057 42.7297 30.525C42.4093 30.6167 41.3429 30.0739 40.4349 29.1734C39.5288 28.2729 38.8238 28.7294 38.5033 28.884C38.1828 29.0386 38.133 28.9325 37.5277 28.4365C36.9206 27.9404 36.0073 28.3412 35.7563 28.6018C35.5053 28.8624 35.1154 29.1374 35.0584 29.2776C35.0032 29.4178 35.4501 29.5095 35.4501 29.5095C35.4501 29.5095 34.8911 29.8402 34.7949 30.0451C34.697 30.25 34.9213 30.419 34.9213 30.419C34.5457 30.5322 33.9457 30.9816 33.9653 31.2206C33.9849 31.4597 34.4958 31.4884 34.4958 31.4884L34.2235 31.8892C34.2235 31.8892 34.3071 32.0582 34.7807 31.9953C34.5154 32.2487 33.741 33.7064 34.0899 33.7621C34.4389 33.8178 35.4145 33.2624 35.4145 33.2624C35.4145 33.2624 35.2543 34.1989 35.4145 34.1917C35.5747 34.1845 36.0073 33.9023 36.0073 33.9023C36.0073 33.9023 35.9236 34.7956 36.0073 34.9861C36.091 35.1767 37.088 34.0928 37.088 34.0928C37.088 34.0928 37.088 34.9933 37.2909 35.1767C37.4939 35.36 38.3092 34.1629 38.3092 34.1629C38.3092 34.1629 38.4285 34.6698 38.6155 34.7686C38.8042 34.8675 39.0338 34.6087 39.0338 34.6087C39.0338 34.6087 39.0481 35.0652 39.543 35.2054C40.0379 35.3456 40.4919 35.1066 40.4919 35.1066C40.4919 35.1066 40.9388 34.9933 40.7857 35.4517C40.2765 36.3468 38.6172 36.2551 38.6172 36.2551V36.3719C38.6172 36.3971 38.6226 36.4222 38.635 36.4438C38.6813 36.5283 38.8042 36.744 38.9092 36.8392C39.041 36.9597 38.8736 37.3102 38.8398 37.6067C38.8042 37.9015 39.1193 37.9932 39.3133 37.8817C39.5092 37.7685 39.8563 37.8817 39.7798 38.0938C39.7032 38.3041 39.689 38.5935 39.8991 38.7211C40.1074 38.8469 40.1982 38.545 40.4492 38.5521C40.7002 38.5593 40.7839 39.1651 41.0278 39.1992C41.2717 39.2351 41.4675 38.7624 41.4034 38.376C41.3269 37.8062 40.1269 36.9453 40.1269 36.9453C40.1269 36.9453 40.8017 36.8716 41.3091 36.7404C41.8164 36.6074 42.2918 36.0861 42.2918 36.0861C42.2918 36.0861 42.6051 36.4708 43.1125 36.7296C43.6199 36.9884 44.7237 37.2149 44.786 37.2526C44.8483 37.2904 44.6614 37.5115 44.0116 37.4485C43.3635 37.3856 42.8241 36.8195 42.8241 36.8195C42.8241 36.8195 42.7084 36.9722 42.4787 37.01C42.2491 37.0477 42.0443 36.7781 42.0443 36.7781C42.0443 36.7781 41.7773 36.8267 41.861 37.0585C41.9446 37.2904 42.4057 37.1861 42.7244 37.1538C43.0128 37.524 43.7961 37.7235 44.1736 37.7235C44.551 37.7235 45.0103 37.8709 45.0477 38.3994C45.288 38.4048 45.3771 38.1927 45.3771 38.1927C45.3771 38.1927 45.6227 38.3886 45.7438 38.403C45.8649 38.4191 45.8898 38.128 45.8898 38.128C45.8898 38.128 46.1355 38.1226 46.2975 38.1387C46.4595 38.1549 46.5432 38.0219 46.5432 38.0219C46.5432 38.0219 46.8511 38.2484 47.0808 38.3814C47.3105 38.5126 47.3995 38.1909 47.3995 38.1909C47.3995 38.1909 47.6291 38.4012 47.8178 38.4335C48.0066 38.4659 48.1579 38.0003 47.8641 37.542" fill="#156D37"/>
<path d="M16.896 38.1783C16.4776 38.1495 16.045 38.7265 15.5857 38.6564C15.2973 38.6132 15.0694 38.4748 14.9395 38.3778C14.8736 38.3274 14.7846 38.322 14.7134 38.3634C14.6012 38.4317 14.3893 38.5018 14.0511 38.4173C13.5811 38.2987 13.209 37.7487 12.7354 37.7325C12.6197 37.7289 12.5307 37.6283 12.5378 37.5114C12.5574 37.2436 12.3936 37.0477 12.1818 37.0801C12.0803 37.0944 11.9948 37.1034 11.9254 37.107C11.8275 37.1124 11.7385 37.0477 11.7135 36.9524C11.6904 36.859 11.637 36.7565 11.5248 36.7565C11.3148 36.7565 10.7166 36.9956 10.6881 36.4743C10.6596 35.9531 10.4371 35.6296 10.186 35.3761C10.008 35.1964 9.99199 34.8621 9.99733 34.6805C9.99911 34.6033 9.96172 34.5314 9.89585 34.4936L9.87093 34.4792C9.77479 34.4217 9.65017 34.4523 9.59142 34.5475C9.29233 35.0256 8.47873 36.3413 8.56953 36.3755C8.63006 36.397 8.80097 36.3809 8.94695 36.3593C9.06979 36.3413 9.18017 36.4366 9.18373 36.5624C9.19085 36.9201 9.23892 37.5456 9.47748 37.5456C9.59854 37.5456 9.68934 37.5546 9.75521 37.5671C9.84244 37.5833 9.91009 37.657 9.92078 37.7451C9.96885 38.1531 10.2323 39.431 11.6245 40.123C13.298 40.9534 14.5246 41.3488 15.7103 40.6299C16.896 39.9109 17.3144 38.2088 16.896 38.1801" fill="#ED2224"/>
<path d="M19.2656 33.4368C19.4472 33.4044 19.2656 33.1654 19.2656 33.1654C19.2656 33.1654 17.6419 31.8425 17.7292 31.0894C17.8164 30.3363 18.0105 29.2453 17.8858 28.7761C17.7844 28.3969 16.9547 27.7193 16.6912 26.9895C16.6378 26.8421 16.426 26.8511 16.3833 27.0021C16.2711 27.4029 16.1714 28.0662 16.2159 29.114C16.2177 29.1608 16.1999 29.2075 16.1661 29.2399C14.9928 30.383 13.8695 31.4686 13.8285 32.8562C13.7929 34.0353 14.8451 34.5835 15.1869 34.7291C15.2474 34.7542 15.3186 34.7417 15.3649 34.6931C15.4949 34.5583 15.7762 34.2923 15.9631 34.2923C16.1394 34.2923 16.2337 34.5925 16.2729 34.7704C16.2907 34.8459 16.3565 34.9016 16.4349 34.8998C16.572 34.898 16.7856 34.8819 16.953 34.8189C17.0153 34.7956 17.0562 34.7345 17.0562 34.668L17.0616 34.384C17.0616 34.2995 17.1274 34.2294 17.2111 34.2222C17.3055 34.2132 17.3873 34.2905 17.3873 34.3858V34.6985C17.3873 34.7704 17.4319 34.8333 17.4995 34.8549C17.6615 34.907 17.9659 34.9735 18.2027 34.8243C18.2544 34.792 18.2864 34.7327 18.2811 34.6716C18.2294 33.931 19.0929 33.4655 19.2673 33.435" fill="#ED2224"/>
<path d="M17.5779 24.8147H18.0176C18.1102 24.8147 18.1761 24.9046 18.1512 24.9944C18.0337 25.4042 17.7826 26.4108 17.9678 26.9482C18.2046 27.6312 18.6995 27.4479 18.6995 27.9547C18.6995 28.3465 18.6568 28.7366 18.6301 29.1284C18.6105 29.4124 18.6051 29.6982 18.614 29.9822C18.6212 30.2248 18.6212 30.4854 18.6586 30.7263C18.6639 30.7586 18.6675 30.7892 18.671 30.8215C18.6835 31.0139 18.6781 31.2385 18.7903 31.3967C18.8989 31.5495 19.0894 31.6268 19.2728 31.5926L24.1472 30.6508C24.1597 30.649 24.1757 30.6418 24.1917 30.6328C24.3395 30.5537 24.4054 30.374 24.3573 30.2122L24.1775 29.5903C24.1294 29.4214 24.1045 29.247 24.1045 29.0727L24.1081 27.9709C24.0742 27.7157 23.8481 27.5305 23.5936 27.5521C23.2802 27.5791 22.8654 27.6042 22.5432 27.5934C22.2832 27.5845 22.0661 27.7894 22.0518 28.0518L22.0376 28.3304C22.0287 28.4885 21.9539 28.6359 21.8311 28.7348C21.6601 28.8714 21.4091 28.751 21.4073 28.5317C21.4038 28.0446 21.3984 27.3652 21.3984 27.1153C21.3984 26.7073 20.4638 26.2418 19.6555 25.2856C19.1499 24.6871 18.8633 24.0508 18.7191 23.6572C18.6301 23.4163 18.4182 23.242 18.1672 23.2006L18.0372 23.1791C17.9749 23.1683 17.9268 23.1162 17.9215 23.0532C17.9019 22.8034 17.7969 22.1995 17.2592 22.1258C17.188 22.1168 17.1222 22.1671 17.1061 22.2372C16.9299 23.0389 16.8533 23.4595 16.8213 23.6608C16.807 23.7452 16.8729 23.8225 16.9584 23.8225H17.3002C17.3767 23.8225 17.439 23.8854 17.439 23.9627V24.6817C17.439 24.759 17.5014 24.8219 17.5779 24.8219" fill="#ED2224"/>
<path d="M27.1326 35.7931C27.097 35.7428 27.081 35.6817 27.0881 35.6188C27.1184 35.3582 27.1825 34.5925 27.0134 33.8537C26.814 32.991 25.1992 32.1175 24.4106 31.6717C24.3393 31.6322 24.2557 31.6304 24.1827 31.6645C23.6504 31.9054 22.3935 32.0348 21.8772 32.0797C21.7508 32.0905 21.6529 32.1948 21.6493 32.3206C21.6422 32.5129 21.6155 32.7951 21.5229 33.0341C21.3912 33.3738 20.5544 33.6452 20.2874 33.7261C20.2375 33.7405 20.2055 33.7854 20.2055 33.8376C20.2055 33.9041 20.2589 33.9544 20.323 33.9544C21.3342 33.9508 21.6974 34.5206 21.8167 34.8063C21.8558 34.9016 21.9466 34.9645 22.0481 34.9645H22.6C22.7389 34.9645 22.851 35.0778 22.851 35.218V35.306C22.851 35.4372 22.7513 35.5487 22.6214 35.5595C21.2897 35.6727 20.9746 35.0292 20.1307 34.6985C19.2423 34.3498 19.0002 35.0778 19.4827 35.4157C19.8726 35.6907 20.4494 36.3827 20.6523 36.6325C20.7004 36.6918 20.7716 36.7242 20.8464 36.7242H22.2243C22.2439 36.7242 22.2617 36.7224 22.2813 36.717L23.5756 36.415C23.6895 36.3881 23.7696 36.2856 23.7696 36.167V35.8578C23.7696 35.7841 23.7251 35.7266 23.6735 35.6745C23.6539 35.6565 23.6432 35.6044 23.6557 35.4858C23.6878 35.1479 24.3767 35.0418 24.3767 35.3168V36.1256C24.3767 36.255 24.4729 36.3647 24.5993 36.3773C24.6082 36.3773 24.6171 36.3791 24.626 36.3809C24.95 36.4186 24.9055 36.9057 24.5815 36.8859C24.5708 36.8859 24.5619 36.8859 24.5512 36.8841C24.3589 36.8733 24.2236 37.0747 24.3091 37.249C24.7506 38.1495 25.614 40.0709 25.9523 40.824C26.0217 40.9804 26.2211 41.0217 26.3475 40.9085C27.0383 40.2866 28.8898 38.5899 28.8221 38.349C28.7474 38.0866 27.4228 36.2011 27.1326 35.7895" fill="#ED2224"/>
<path d="M27.6759 11.5195C27.5993 11.0126 26.3442 10.1049 26.2605 10.2092C26.3656 10.6208 26.2926 10.9174 26.1145 10.7161C25.9365 10.5147 25.5876 10.4518 25.6 10.5363C25.6125 10.6208 26.0166 11.054 25.6 11.0324C25.1834 11.0108 24.5781 10.8311 24.1491 11.2427C23.761 10.7987 23.5527 10.7035 23.2803 10.725C23.0079 10.7466 22.7996 11.0306 22.7996 11.0306C22.7996 11.0306 22.5272 10.4285 22.0359 10.4177C21.5445 10.4069 21.1048 11.284 20.8965 11.8017C20.6882 12.3193 20.8822 13.1749 21.0727 13.4804C21.0727 13.4804 21.9735 13.121 22.2459 13.4804C22.5183 13.8399 22.6643 14.061 22.6643 14.061C22.6643 14.061 23.3337 13.5397 23.5527 13.7105C23.7717 13.8812 23.7717 14.2263 23.7717 14.2263C23.7717 14.2263 24.2951 13.9352 24.5247 13.9657C24.7544 13.9981 24.9021 14.3881 24.9021 14.3881C24.9021 14.3881 25.2475 14.1562 25.5092 14.1347C25.7709 14.1131 25.876 14.3252 25.876 14.3252C25.876 14.3252 26.0807 13.8597 26.3228 13.8543C26.5667 13.8489 26.597 14.2263 26.597 14.2263C26.597 14.2263 27.2361 13.7986 27.5388 13.9028C27.7684 12.6033 27.756 12.0227 27.6794 11.5159M23.1432 13.2486C23.0506 13.2486 22.9759 13.1425 22.9759 13.0131C22.9759 12.8837 23.0506 12.7777 23.1432 12.7777C23.2358 12.7777 23.3106 12.8837 23.3106 13.0131C23.3106 13.1425 23.2358 13.2486 23.1432 13.2486ZM23.8304 13.4031C23.7449 13.4031 23.6773 13.333 23.6773 13.2486C23.6773 13.1641 23.7467 13.094 23.8304 13.094C23.9141 13.094 23.9835 13.1641 23.9835 13.2486C23.9835 13.333 23.9141 13.4031 23.8304 13.4031ZM25.3259 13.7141C25.2262 13.7141 25.1443 13.5757 25.1443 13.4031C25.1443 13.2306 25.2244 13.0922 25.3259 13.0922C25.4273 13.0922 25.5074 13.2306 25.5074 13.4031C25.5074 13.5757 25.4256 13.7141 25.3259 13.7141ZM27.0741 13.4031C26.9976 13.4031 26.9335 13.3187 26.9335 13.2162C26.9335 13.1138 26.9958 13.0293 27.0741 13.0293C27.1525 13.0293 27.2148 13.112 27.2148 13.2162C27.2148 13.3205 27.1525 13.4031 27.0741 13.4031Z" fill="#ED2224"/>
<path d="M6.97973 33.1653L8.65322 31.5243L8.42356 31.2781C8.42356 31.2781 6.84799 32.4967 6.63792 32.7358C6.42962 32.9748 6.97973 33.1653 6.97973 33.1653Z" fill="white"/>
<path d="M8.77767 33.115C8.63525 33.115 8.51953 33.2318 8.51953 33.3756C8.51953 33.5194 8.63525 33.6362 8.77767 33.6362C8.9201 33.6362 9.03582 33.5194 9.03582 33.3756C9.03582 33.2318 8.9201 33.115 8.77767 33.115Z" fill="white"/>
<path d="M8.78504 31.7994C8.24739 32.0168 7.75959 32.6513 7.59224 33.1025C7.42489 33.5536 6.40656 34.3624 6.14841 34.9466C5.89027 35.5307 5.20663 36.7494 5.04641 37.6894C4.88618 38.6294 5.43629 38.8954 5.65349 38.6708C5.86891 38.4461 7.59936 36.699 8.03197 36.1994C8.46459 35.6997 9.46156 33.559 9.46156 33.559C9.46156 33.559 9.74819 33.3128 9.80338 32.8544C9.85856 32.3961 9.24258 31.6124 8.78504 31.7976M8.72273 33.94C8.41474 33.94 8.1655 33.6884 8.1655 33.3775C8.1655 33.0665 8.41474 32.8149 8.72273 32.8149C9.03073 32.8149 9.27997 33.0665 9.27997 33.3775C9.27997 33.6884 9.03073 33.94 8.72273 33.94Z" fill="white"/>
<path d="M17.5851 35.3761C17.2646 35.4246 16.832 35.9117 16.832 35.9117C16.832 35.9117 16.6433 35.412 16.3513 35.412C16.0594 35.412 15.5912 35.7356 15.5912 35.7356C15.5912 35.7356 15.5146 35.3545 15.2565 35.306C14.9983 35.2575 14.6423 35.3348 14.6423 35.3348C14.6423 35.3348 14.5372 34.6733 14.2524 34.6302C13.9657 34.587 13.729 34.8908 13.729 34.8908C13.729 34.8908 13.088 34.2294 13.2055 32.8148C13.323 31.4003 14.9004 29.407 14.9004 29.407L15.5912 29.0205C15.5912 29.0205 15.7247 28.8372 15.6054 28.4004C14.5657 27.8576 13.9711 28.6125 13.9711 28.6125C13.9711 28.6125 13.8037 28.4849 13.4851 28.5227C13.1664 28.5604 12.8157 28.9918 12.8157 28.9918C12.8157 28.9918 12.586 28.9433 12.351 29.0924C12.116 29.2398 11.865 29.8905 11.865 29.8905C11.865 29.8905 11.6816 29.6478 11.468 29.8168C11.2543 29.9857 11.1279 30.5501 11.1279 30.5501C11.1279 30.5501 10.4835 30.7406 10.3232 31.3266C10.163 31.9125 10.4639 32.0869 10.7042 32.0923C10.9446 32.0977 10.8502 32.414 10.6775 32.3924C10.5048 32.3709 10.1292 32.1767 10.1078 32.583C10.0865 32.9892 10.4585 33.1653 10.4585 33.1653C9.94581 33.9004 10.5208 34.1988 10.6419 34.0352C10.4639 33.9454 10.4585 33.4709 10.6686 33.496C10.8787 33.523 10.8004 33.7441 10.8146 33.94C10.8288 34.1359 11.2152 34.1305 11.2152 34.1305C11.2152 34.1305 10.8876 34.5816 10.9161 34.8908C10.9446 35.1999 11.4537 35.2071 11.4537 35.2071C11.4537 35.2071 10.9926 35.7769 11.2312 36.0932C11.468 36.4096 12.2353 36.2982 12.2353 36.2982C12.2353 36.2982 12.1516 36.5516 12.3741 36.6397C12.5967 36.7277 12.8691 36.6397 12.8691 36.6397C12.8691 36.6397 12.716 37.1986 13.0791 37.3604C13.4423 37.5222 13.6239 37.1214 13.6239 37.1214C13.6239 37.1214 13.6524 37.9589 14.085 37.9949C14.5176 38.0308 14.9627 37.5797 14.9627 37.5797C14.9627 37.5797 15.082 38.0506 15.4291 38.0722C15.7781 38.0937 16.0433 37.7558 16.1057 37.488C16.6291 37.5869 16.921 37.5581 17.1934 37.1016C17.4213 36.7169 17.7596 36.8535 17.9768 36.8571C18.0391 36.8571 18.0871 36.8086 18.096 36.7457C18.1672 36.2586 18.5287 35.9405 18.6604 35.8398C18.6907 35.8165 18.7085 35.7805 18.7085 35.7428V35.4821C18.7085 35.3761 18.5838 35.3186 18.5055 35.3887L18.2207 35.6439C18.2207 35.6439 17.9144 35.3276 17.5922 35.3761M14.6084 28.5964C14.8381 28.5964 14.8381 28.9558 14.6084 28.9558C14.3788 28.9558 14.3788 28.5964 14.6084 28.5964ZM14.3467 29.3351C14.5764 29.3351 14.5764 29.6946 14.3467 29.6946C14.1171 29.6946 14.1171 29.3351 14.3467 29.3351ZM10.56 31.8173C10.3304 31.8173 10.3304 31.4578 10.56 31.4578C10.7897 31.4578 10.7897 31.8173 10.56 31.8173ZM13.656 29.4303C13.8856 29.4303 13.8838 29.7898 13.656 29.7898C13.4281 29.7898 13.4263 29.4303 13.656 29.4303ZM13.4477 30.9078C13.6773 30.9078 13.6755 31.2673 13.4477 31.2673C13.2198 31.2673 13.218 30.9078 13.4477 30.9078ZM13.0186 29.7053C13.2483 29.7053 13.2483 30.0648 13.0186 30.0648C12.789 30.0648 12.7907 29.7053 13.0186 29.7053ZM12.6519 29.1877C12.8815 29.1877 12.8815 29.5472 12.6519 29.5472C12.4222 29.5472 12.4222 29.1877 12.6519 29.1877ZM12.4329 32.4571C12.2032 32.4571 12.2032 32.0977 12.4329 32.0977C12.6626 32.0977 12.6626 32.4571 12.4329 32.4571ZM12.3172 29.8635C12.5468 29.8635 12.5468 30.223 12.3172 30.223C12.0875 30.223 12.0893 29.8635 12.3172 29.8635ZM12.2228 30.4549C12.4525 30.4549 12.4525 30.8143 12.2228 30.8143C11.9932 30.8143 11.9932 30.4549 12.2228 30.4549ZM11.6585 30.3272C11.8881 30.3272 11.8881 30.6867 11.6585 30.6867C11.4288 30.6867 11.4306 30.3272 11.6585 30.3272ZM11.4591 31.1936C11.6887 31.1936 11.6887 31.5531 11.4591 31.5531C11.2294 31.5531 11.2294 31.1936 11.4591 31.1936ZM11.6371 32.4787C11.8668 32.4787 11.8668 32.8382 11.6371 32.8382C11.4074 32.8382 11.4092 32.4787 11.6371 32.4787ZM10.8288 33.0341C10.5992 33.0341 10.601 32.6746 10.8288 32.6746C11.0567 32.6746 11.0585 33.0341 10.8288 33.0341ZM11.2401 31.6052C11.4698 31.6052 11.4698 31.9647 11.2401 31.9647C11.0104 31.9647 11.0104 31.6052 11.2401 31.6052ZM11.4288 33.6111C11.1991 33.6111 11.2009 33.2516 11.4288 33.2516C11.6567 33.2516 11.6585 33.6111 11.4288 33.6111ZM11.6656 34.3156C11.4359 34.3156 11.4377 33.9562 11.6656 33.9562C11.8935 33.9562 11.8952 34.3156 11.6656 34.3156ZM11.7777 32.1192C11.5481 32.1192 11.5481 31.7598 11.7777 31.7598C12.0074 31.7598 12.0056 32.1192 11.7777 32.1192ZM12.084 32.9712C12.3136 32.9712 12.3136 33.3307 12.084 33.3307C11.8543 33.3307 11.8543 32.9712 12.084 32.9712ZM12.2513 33.7944C12.0216 33.7944 12.0216 33.4349 12.2513 33.4349C12.481 33.4349 12.481 33.7944 12.2513 33.7944ZM12.5433 34.4702C12.3136 34.4702 12.3136 34.1107 12.5433 34.1107C12.7729 34.1107 12.7729 34.4702 12.5433 34.4702ZM12.7462 30.4333C12.9759 30.4333 12.9759 30.7928 12.7462 30.7928C12.5166 30.7928 12.5166 30.4333 12.7462 30.4333ZM12.9866 33.7495C12.7569 33.7495 12.7569 33.39 12.9866 33.39C13.2162 33.39 13.2162 33.7495 12.9866 33.7495ZM13.186 31.6267C13.4156 31.6267 13.4156 31.9862 13.186 31.9862C12.9563 31.9862 12.9581 31.6267 13.186 31.6267ZM14.8594 36.3898C14.6298 36.3898 14.6298 36.0303 14.8594 36.0303C15.0891 36.0303 15.0891 36.3898 14.8594 36.3898ZM17.5584 36.1993C17.3287 36.1993 17.3287 35.8398 17.5584 35.8398C17.788 35.8398 17.788 36.1993 17.5584 36.1993Z" fill="white"/>
<path d="M30.6735 37.7092C29.7709 38.3239 27.6327 40.1159 26.2441 41.6203C26.1658 41.7066 26.1515 41.8324 26.2085 41.9348L26.7319 42.8605C26.8191 43.0151 27.0292 43.042 27.152 42.9144C28.1917 41.8324 32.1974 37.6588 32.3879 37.4665C32.6069 37.2455 31.6028 37.0765 30.6717 37.7092M27.6933 41.6005C27.5526 42.0175 27.2535 42.0499 27.0025 42.0121C26.885 41.9941 26.7853 41.8863 26.7123 41.7767C26.6269 41.6472 26.6678 41.4729 26.8013 41.3956C26.9616 41.3021 27.1752 41.1745 27.3069 41.0775C27.5419 40.9031 27.8357 41.1835 27.6933 41.6005Z" fill="white"/>
<path d="M27.1541 41.4261C27.0384 41.4261 26.9458 41.5214 26.9458 41.6364C26.9458 41.7515 27.0402 41.8485 27.1541 41.8485C27.268 41.8485 27.3624 41.7533 27.3624 41.6364C27.3624 41.5196 27.268 41.4261 27.1541 41.4261Z" fill="white"/>
<path d="M27.7592 43.0078C26.7694 43.7124 27.145 44.4727 27.7289 44.4871C28.3129 44.5014 29.1461 43.9443 29.3419 43.6567C29.5377 43.3673 29.4808 43.1714 29.4808 43.1714L27.7592 43.0096V43.0078Z" fill="white"/>
<path d="M28.5962 42.3176C27.941 42.4093 27.8787 42.8317 28.233 42.8389C28.5891 42.846 29.6555 42.7903 29.6555 42.7903C29.9492 42.4219 29.2513 42.2277 28.5962 42.3194" fill="white"/>
<path d="M32.3755 37.9177C32.0425 38.3059 29.2564 41.2285 28.5905 41.9924C28.562 42.0265 28.5905 42.0786 28.635 42.0679C29.1015 41.9654 29.7566 42.2512 29.8902 42.3123C29.9062 42.3195 29.9222 42.3177 29.9364 42.3087C30.0361 42.235 30.4705 41.8953 31.0438 41.2051C31.6989 40.4161 32.8633 38.8613 33.0591 38.2268C33.2549 37.5942 32.7315 37.5025 32.3755 37.9177Z" fill="white"/>
<path d="M27.3052 25.0052C27.3052 25.0052 26.901 25.2371 26.942 25.4833C26.9829 25.7296 27.3123 25.9057 27.1574 26.2796C27.0043 26.6534 26.0216 26.7936 26.0839 27.3005C26.1409 27.7624 26.7301 27.5755 26.8459 28.564C26.8637 28.7132 27.015 28.8085 27.1539 28.7564C27.4209 28.6557 27.8464 28.5568 28.3146 28.6737C29.1033 28.8714 30.0166 28.8139 29.9115 28.5047C29.8065 28.1956 29.3187 27.9835 29.4237 27.8001C29.5288 27.6168 29.8635 27.4622 29.8492 27.2645C29.835 27.0668 29.0125 26.8781 29.0267 26.7433C29.041 26.6103 29.5768 26.2921 29.5145 25.983C29.4522 25.6738 28.9769 25.4132 28.9769 25.4132C28.9769 25.4132 29.5555 24.9351 29.5697 24.8363C29.584 24.7374 29.0321 24.6529 28.9217 24.7374C28.8095 24.8219 28.19 25.4546 27.8411 25.4617C27.4921 25.4689 27.3034 25.0034 27.3034 25.0034" fill="white"/>
<path d="M24.5388 26.1591L25.2332 26.2112C25.299 26.2166 25.356 26.2526 25.3898 26.3101C25.4325 26.3838 25.5127 26.4755 25.6515 26.4629C25.8812 26.4413 26.2996 26.3461 26.3423 26.0513C26.3672 25.8715 26.2355 25.7242 26.1269 25.6343C26.0557 25.5768 26.0361 25.4743 26.0788 25.3934C26.1411 25.2712 26.2141 25.1041 26.207 25.016C26.1963 24.8686 25.9987 24.3725 25.7886 24.457C25.6462 24.5145 25.5803 24.7014 25.5536 24.8129C25.5411 24.8632 25.5091 24.9063 25.4646 24.9333C25.4201 24.9603 25.3542 25.0106 25.2545 25.1005C25.1317 25.2119 25.1139 25.388 25.121 25.5229C25.1263 25.6289 25.0444 25.7206 24.9394 25.7295L24.5371 25.7619C24.4338 25.7709 24.3555 25.8572 24.3555 25.9614C24.3555 26.0657 24.4356 26.1519 24.5388 26.1609" fill="#ED2224"/>
<path d="M26.239 29.0925C26.3387 28.9398 26.2764 28.6126 26.2764 28.6126L25.8794 28.5443C25.8687 28.7762 25.9007 28.9038 25.6444 28.9775C25.388 29.0512 25.3613 28.6126 25.5607 28.4293C25.7601 28.2442 25.8687 27.669 25.6818 27.6367C25.493 27.6043 25.3577 28.0644 25.1584 28.0123C24.959 27.9602 25.1174 27.7067 25.3827 27.5791C25.6497 27.4533 25.623 27.2304 25.5126 27.0669C25.4022 26.9033 25.2242 27.0507 25.1566 27.2934C25.0889 27.536 24.7435 27.4407 24.8058 27.3311C24.8682 27.2197 25.1619 26.9932 25.2082 26.7613C25.2545 26.5295 24.8895 26.5295 24.8788 26.6876C24.8682 26.8458 24.6705 26.8728 24.5958 27.1675C24.4854 27.3041 24.3234 27.5953 24.3501 27.7912C24.3768 27.9871 24.7578 27.9278 24.8165 28.0914C24.8753 28.255 25.0978 28.3448 25.0978 28.3448C25.0978 28.3448 24.9358 28.4347 24.8984 28.5983C24.8628 28.7618 25.0088 28.9362 25.0088 28.9362C25.0088 28.9362 24.8682 29.1051 24.8201 29.3154C24.7738 29.5275 25.1601 29.8492 25.1601 29.8492C25.0925 30.7569 25.5732 30.7461 25.9079 30.5304C26.2426 30.313 26.3725 29.2938 26.2372 29.0943M25.2242 29.3711C25.1352 29.3711 25.0622 29.2974 25.0622 29.2076C25.0622 29.1177 25.1352 29.044 25.2242 29.044C25.3132 29.044 25.3862 29.1177 25.3862 29.2076C25.3862 29.2974 25.3132 29.3711 25.2242 29.3711ZM25.5482 30.2536C25.4379 30.2536 25.3488 30.1638 25.3488 30.0523C25.3488 29.9409 25.4379 29.851 25.5482 29.851C25.6586 29.851 25.7476 29.9409 25.7476 30.0523C25.7476 30.1638 25.6586 30.2536 25.5482 30.2536Z" fill="white"/>
<path d="M28.2471 29.0439V30.649C28.2471 30.8934 28.3023 31.2853 28.5889 31.2907C28.8755 31.2978 29.0144 31.1577 29.0215 30.8898C29.0286 30.622 28.9236 29.3135 28.8542 29.1446C28.7847 28.9756 28.2471 29.0439 28.2471 29.0439Z" fill="white"/>
<path d="M34.2716 28.138C33.8177 28.1021 33.5114 28.0086 33.4491 27.7875C33.1981 27.8558 32.9898 28.0607 32.445 28.005C31.9021 27.9493 31.1828 27.7732 31.092 27.6455C31.0012 27.5197 31.2451 26.9212 31.635 27.2591C32.0249 27.597 33.0236 27.6042 33.2729 26.8799C32.6249 26.7468 32.0872 25.7817 31.8647 25.7313C31.8647 25.7313 31.1187 25.929 31.0618 26.2526C31.1312 26.7235 30.8944 27.358 30.7484 27.6527C30.6024 27.9475 30.7769 28.3214 31.2077 28.3789C31.6404 28.4346 32.4842 28.8785 33.1038 29.8078C33.2497 29.9408 33.6272 29.7089 33.3833 29.4142C33.1394 29.1176 32.721 28.7779 32.7477 28.6125C32.7744 28.4472 33.1589 28.3645 33.4313 28.5406C33.7037 28.7168 34.3375 29.0619 34.5547 28.7869C34.7701 28.5119 34.7221 28.174 34.2681 28.1398" fill="white"/>
<path d="M35.2778 25.5552C35.041 25.5624 33.4779 25.5193 33.0186 25.176C32.5593 24.8309 31.8115 25.176 31.8115 25.176C31.8115 25.176 32.2922 25.4006 32.3901 25.5983C32.488 25.7961 33.1076 26.3515 33.3729 26.4144C33.6381 26.4773 33.7075 25.9704 33.9995 25.9704C34.2915 25.9704 34.7935 25.9992 35.276 25.9704C35.7567 25.9416 35.5128 25.548 35.276 25.5552" fill="white"/>
<path d="M33.7288 26.871C33.7288 26.871 33.638 27.5827 33.5259 27.7301C34.035 27.8218 35.4148 27.4551 35.4504 27.1675C35.486 26.8782 33.7288 26.8728 33.7288 26.8728" fill="white"/>
<path d="M30.0683 25.8033C30.273 25.8087 30.3656 25.9776 30.3656 26.1466C30.3869 26.3156 30.8356 26.0513 30.8267 25.7817C30.816 25.5121 30.5276 25.4654 30.5543 25.3432C30.581 25.2227 30.873 25.3018 30.873 25.3018L30.8997 25.0214C30.8997 25.0214 30.6807 25.0843 30.5543 25.0214C30.4297 24.9585 30.2926 24.7518 30.2926 24.7518L30.1057 24.9442C30.1965 24.9729 30.2605 25.0574 30.2605 25.158C30.2605 25.2839 30.1591 25.3845 30.0362 25.3845C29.9383 25.3845 29.8546 25.3198 29.8244 25.2317L29.6499 25.4115C29.6499 25.4115 29.8635 25.7979 30.0683 25.8015" fill="white"/>
<path d="M29.9013 26.8961C30.058 27.1028 30.2574 27.0741 30.4034 26.9482C30.528 27.0543 30.2093 27.234 30.2413 27.4767C30.2734 27.7193 30.0224 27.7714 30.0402 27.9314C30.058 28.0896 30.0402 28.1525 30.0402 28.2909C30.0402 28.4293 30.5191 28.5659 30.5191 28.228C30.5191 27.8901 30.3767 27.3437 30.5191 27.2017C30.6615 27.0597 30.6757 26.8763 30.7025 26.6337C30.7292 26.391 30.5191 26.4917 30.4265 26.285C30.3339 26.0783 30.0758 25.9255 29.9512 25.9633C29.9512 25.9633 30.0188 26.3749 29.7625 26.5438C29.5061 26.7128 29.7464 26.6912 29.9031 26.8979M30.1719 26.4665C30.2627 26.4665 30.3357 26.5402 30.3357 26.6319C30.3357 26.7236 30.2627 26.7973 30.1719 26.7973C30.0811 26.7973 30.0081 26.7236 30.0081 26.6319C30.0081 26.5402 30.0811 26.4665 30.1719 26.4665Z" fill="white"/>
<path d="M24.5175 25.1382C24.5104 24.3078 25.1798 24.3995 25.1531 24.0382C25.1246 23.677 25.1388 22.9562 25.0979 22.6471C25.0552 22.3379 24.651 22.1959 24.651 22.1959V21.8095C24.651 21.8095 24.295 22.0773 23.9977 21.9784C24.0618 22.1959 23.8285 22.5069 23.8285 22.5069C23.8285 22.5069 23.7591 22.302 23.5633 22.3235C23.2499 22.4224 22.8458 23.2043 23.1022 23.2744C23.3603 23.3444 23.6042 23.535 23.7021 23.9933C24.2255 24.5775 23.9674 24.8668 23.5775 25.14C23.5223 25.034 23.047 25.0412 23.0132 24.8381C22.9776 24.6332 23.2713 24.4085 23.5633 24.7824C23.6469 24.6691 23.7093 24.3186 23.3265 24.2395C23.1449 23.6266 22.7123 23.7884 22.7123 23.7884C22.7123 23.7884 22.5165 23.2744 22.4061 23.0982C22.2939 22.9221 21.9948 23.224 21.8417 23.0982C21.6886 22.9706 21.8969 22.6686 22.2601 22.9005C22.2458 22.7603 22.0162 22.4709 22.0162 22.4709C22.0162 22.4709 22.212 21.7879 22.0162 21.6747C21.8204 21.5614 21.2969 21.8508 21.2969 21.8508C21.2969 21.8508 21.2969 21.45 21.2275 21.2038C21.1581 20.9575 20.7735 20.8029 20.7735 20.8029C20.7735 20.8029 20.8501 20.4165 20.7878 20.0283C20.7255 19.6418 20.1469 19.1134 20.1469 19.1134C20.1469 19.1134 20.5724 18.8186 20.5581 18.7683C20.5439 18.7198 20.2021 18.5994 20.2021 18.5994C20.2021 18.5994 20.4388 18.4699 20.4139 18.1518C20.389 17.8355 19.8496 17.8606 19.8496 17.5784C20.0614 17.5083 20.4905 17.0824 20.4869 17.0123C20.4833 16.9422 20.3819 16.7031 20.0169 16.6851C19.6502 16.6672 19.4508 16.9547 19.4312 16.9565C18.8419 16.9745 18.5143 17.636 18.5428 17.9325C18.5713 18.2273 18.3683 18.2776 18.2081 18.4178C18.0479 18.558 18.096 18.8761 18.201 19.1709C18.306 19.4675 17.9286 19.5861 17.747 19.9528C17.5654 20.3195 17.8859 20.4237 17.9909 20.6502C18.096 20.8748 17.7114 21.0366 17.8093 21.4248C17.9072 21.8113 18.639 21.8616 18.639 21.8616C18.639 21.8616 18.5695 22.3253 18.687 22.5446C18.8063 22.7621 19.1962 22.7279 19.1962 22.7279C19.1962 22.7279 19.141 23.3193 19.4294 23.4882C19.7196 23.6572 20.1308 23.6015 20.1308 23.6015C20.1308 23.6015 19.789 24.0095 19.9279 24.1856C20.0668 24.3618 20.4086 23.961 20.6258 24.0095C20.8412 24.058 20.2626 24.5451 20.3534 24.8614C20.4442 25.1778 20.8554 25.0933 20.8554 25.0933C20.8554 25.0933 20.7646 25.4456 20.9747 25.6505C21.1848 25.8554 21.694 25.8482 21.694 25.8482V26.3191C21.8684 26.3551 21.904 26.1502 22.196 26.1286C22.4897 26.107 22.3491 26.3892 22.5788 26.4378C22.8084 26.4863 22.9135 26.143 23.1022 26.0082C23.2909 25.8752 23.8001 25.8536 23.8908 25.6775C23.898 25.3539 24.0867 25.2335 24.1775 25.318C24.2683 25.4025 24.5335 25.593 24.5193 25.1418M23.4921 23.1575C23.2624 23.1575 23.2624 22.798 23.4921 22.798C23.7217 22.798 23.7217 23.1575 23.4921 23.1575ZM19.8175 16.9619C20.0472 16.9619 20.0472 17.3214 19.8175 17.3214C19.5879 17.3214 19.5879 16.9619 19.8175 16.9619ZM19.141 20.1433C18.9113 20.1433 18.9113 19.7838 19.141 19.7838C19.3707 19.7838 19.3707 20.1433 19.141 20.1433ZM19.0431 17.476C19.2727 17.476 19.2727 17.8355 19.0431 17.8355C18.8134 17.8355 18.8134 17.476 19.0431 17.476ZM18.2758 20.7634C18.0461 20.7634 18.0461 20.4039 18.2758 20.4039C18.5054 20.4039 18.5054 20.7634 18.2758 20.7634ZM18.4502 19.1871C18.2206 19.1871 18.2206 18.8276 18.4502 18.8276C18.6799 18.8276 18.6781 19.1871 18.4502 19.1871ZM18.7297 18.6659C18.5001 18.6659 18.5019 18.3064 18.7297 18.3064C18.9576 18.3064 18.9594 18.6659 18.7297 18.6659ZM19.0288 21.7358C18.7992 21.7358 18.7992 21.3763 19.0288 21.3763C19.2585 21.3763 19.2585 21.7358 19.0288 21.7358ZM19.3849 22.559C19.1552 22.559 19.1552 22.1995 19.3849 22.1995C19.6146 22.1995 19.6146 22.559 19.3849 22.559ZM19.5665 21.7556C19.3368 21.7556 19.3368 21.3961 19.5665 21.3961C19.7961 21.3961 19.7961 21.7556 19.5665 21.7556ZM19.7125 19.2069C19.4828 19.2069 19.4828 18.8474 19.7125 18.8474C19.9421 18.8474 19.9421 19.2069 19.7125 19.2069ZM20.0258 20.3895C20.2555 20.3895 20.2555 20.749 20.0258 20.749C19.7962 20.749 19.7962 20.3895 20.0258 20.3895ZM20.2697 21.2487C20.4994 21.2487 20.4994 21.6082 20.2697 21.6082C20.0401 21.6082 20.0401 21.2487 20.2697 21.2487ZM20.4299 23.1647C20.2003 23.1647 20.2003 22.8052 20.4299 22.8052C20.6596 22.8052 20.6596 23.1647 20.4299 23.1647ZM20.4727 22.2067C20.243 22.2067 20.243 21.8472 20.4727 21.8472C20.7023 21.8472 20.7023 22.2067 20.4727 22.2067ZM21.1759 23.4954C21.4055 23.4954 21.4055 23.8549 21.1759 23.8549C20.9462 23.8549 20.948 23.4954 21.1759 23.4954ZM21.183 24.2773C21.4127 24.2773 21.4127 24.6368 21.183 24.6368C20.9533 24.6368 20.9551 24.2773 21.183 24.2773ZM21.2044 25.2065C20.9747 25.2065 20.9747 24.8471 21.2044 24.8471C21.434 24.8471 21.4323 25.2065 21.2044 25.2065ZM21.6655 22.3397C21.4358 22.3397 21.4358 21.9802 21.6655 21.9802C21.8951 21.9802 21.8951 22.3397 21.6655 22.3397ZM22.2156 23.925C21.9859 23.925 21.9859 23.5655 22.2156 23.5655C22.4452 23.5655 22.4452 23.925 22.2156 23.925ZM22.4737 25.4672C22.2441 25.4672 22.2441 25.1077 22.4737 25.1077C22.7034 25.1077 22.7016 25.4672 22.4737 25.4672ZM22.536 24.6565C22.3064 24.6565 22.3082 24.2971 22.536 24.2971C22.7639 24.2971 22.7657 24.6565 22.536 24.6565ZM23.3603 25.7134C23.1307 25.7134 23.1307 25.3539 23.3603 25.3539C23.59 25.3539 23.59 25.7134 23.3603 25.7134ZM24.7329 23.1575C24.9626 23.1575 24.9626 23.517 24.7329 23.517C24.5033 23.517 24.5033 23.1575 24.7329 23.1575ZM24.0368 23.8333C23.8072 23.8333 23.8072 23.4739 24.0368 23.4739C24.2665 23.4739 24.2647 23.8333 24.0368 23.8333ZM24.4677 22.4673C24.6973 22.4673 24.6955 22.8268 24.4677 22.8268C24.2398 22.8268 24.238 22.4673 24.4677 22.4673Z" fill="white"/>
<path d="M27.0204 15.1628C27.0204 15.1628 27.2714 14.5085 27.202 14.3108C27.1325 14.1131 26.9153 14.3252 26.8673 14.9651C26.7142 15.0567 26.31 14.8446 26.1979 15.0855C26.0448 14.7188 25.6157 14.8392 25.5997 14.9794C25.3896 14.593 24.9819 14.478 24.503 14.9021C24.3001 14.4384 24.1131 14.62 23.9654 14.8536C23.8674 14.6631 23.5612 14.5481 23.344 14.8105C23.2746 14.5642 22.9951 14.3881 22.7939 14.5786C22.7939 14.5786 22.801 14.3252 22.5429 14.3036C22.2848 14.2821 22.1317 14.3324 22.1317 14.3324C22.1317 14.3324 22.3204 13.7842 22.2011 13.7195C22.0818 13.6566 21.8379 14.1706 21.3501 14.0574C21.3501 14.0574 22.7939 15.3731 24.9623 15.4306C26.9011 15.4593 27.0186 15.1628 27.0186 15.1628" fill="white"/>
<path d="M27.0489 15.5636C26.9652 15.7811 27.2786 15.95 27.2519 16.1765C27.2519 16.1765 27.6987 15.9788 27.6774 15.6912C27.656 15.4018 27.1344 15.3461 27.0507 15.5654" fill="white"/>
<path d="M26.3795 16.2807C26.5113 16.3706 26.8673 16.3113 26.8673 16.3113C26.8673 16.3113 26.9029 15.8476 26.6234 15.8044C26.3439 15.7631 26.2478 16.1909 26.3795 16.2807Z" fill="white"/>
<path d="M25.9611 16.1424L26.1142 15.7415C26.1142 15.7415 25.8276 15.8188 25.4662 15.72C25.103 15.6211 24.9019 16.0094 24.9019 16.0094C24.9019 16.0094 25.0763 16.0165 25.3968 16.0381C25.7172 16.0597 25.7938 16.1999 25.9611 16.1442" fill="white"/>
<path d="M24.1614 15.8889C24.238 16.0794 24.6208 15.8475 24.6208 15.8475C24.6208 15.8475 24.7525 15.5725 24.5513 15.5653C24.3502 15.5581 24.0849 15.6983 24.1614 15.8889Z" fill="white"/>
<path d="M20.1022 15.2617C19.8654 15.4791 19.9562 15.72 20.2837 15.7631C20.6113 15.8081 20.7929 15.4234 20.3674 15.0783C20.5063 15.0568 20.8339 14.5858 20.9051 14.6344C20.9745 14.6829 20.7092 14.9579 20.7164 15.1197C20.7235 15.2814 21.0582 15.2257 21.4214 15.1898C21.7845 15.1538 21.6777 15.6121 21.9216 15.7613C22.1655 15.9105 22.2777 15.4288 22.2777 15.4288C22.34 14.9867 22.0747 14.8572 21.7685 14.8303C21.4623 14.8015 21.4694 14.4079 21.1899 14.5211C21.0849 14.3953 20.9175 14.1617 20.695 14.2461C20.4725 14.3306 20.4511 14.5715 20.4511 14.5715C20.4511 14.5715 20.2499 14.6326 20.0256 14.6757C19.8031 14.7188 19.7603 14.9579 20.1022 15.2599" fill="white"/>
<path d="M24.5548 10.5956L25.0515 10.326C24.8949 10.2523 24.8468 9.63935 24.8272 9.49736C24.8059 9.35536 24.6332 9.9467 24.6332 9.9467C24.6332 9.9467 24.3768 10.0258 24.2646 10.0635C24.4409 10.1696 24.5548 10.5974 24.5548 10.5974" fill="white"/>
<path d="M22.4788 10.3206C22.6141 10.4159 23.2265 10.2685 23.3102 10.1193C23.3939 9.97191 23.5452 10.2361 23.6769 10.3206C23.8087 10.4051 23.9849 10.3206 23.9849 10.3206C24.0989 9.82453 23.2586 9.66636 22.7102 9.72388C22.1601 9.78139 22.3435 10.2253 22.4806 10.3206" fill="#ED2224"/>
<path d="M19.887 32.2433C19.5381 31.9198 19.1767 32.1517 19.239 32.3907C19.3031 32.6298 19.6075 32.4752 19.7749 32.4411C19.9422 32.4069 19.8229 32.8131 19.9208 32.8832C20.0188 32.9533 20.325 32.6927 20.3535 32.3134C20.3819 31.9342 20.1915 32.5273 19.887 32.2433Z" fill="white"/>
<path d="M43.1947 35.608C43.1324 35.3546 43.905 35.5972 44.9198 34.9753C45.9168 34.3624 46.5203 33.4242 46.312 32.9802C46.3049 32.9658 46.3031 32.9479 46.3067 32.9317C46.4811 32.1804 46.3743 31.8065 46.061 31.5225C46.0111 31.4758 45.931 31.5171 45.9382 31.5854C46.0183 32.3565 45.7886 32.9047 45.7156 33.0539C45.7032 33.0791 45.6782 33.0952 45.6497 33.0952H45.3934C45.3489 33.0952 45.315 33.0575 45.3204 33.0126C45.34 32.8472 45.3791 32.4122 45.372 31.4902C45.3613 30.2572 44.4783 29.4771 43.9335 28.9487C43.9228 28.9379 43.9157 28.9271 43.9122 28.9127C43.8089 28.4921 44.0528 27.6977 44.1276 27.473C44.1383 27.4407 44.1703 27.4191 44.2041 27.4227C44.27 27.4299 44.4 27.4317 44.6189 27.3921C44.7721 27.3634 44.8397 27.2861 44.8664 27.207C44.8842 27.1531 44.9572 27.1441 44.9928 27.1872C45.0854 27.3041 45.2278 27.4532 45.4041 27.5377C45.6622 27.6635 46.004 27.5898 46.1358 27.5539C46.1678 27.5449 46.1892 27.5162 46.1892 27.482V27.4065C46.1892 27.3562 46.1429 27.322 46.0948 27.3346C45.8669 27.4011 45.2955 27.5179 45.153 27.0722C44.9857 26.5474 44.9661 25.9488 44.6546 25.832C44.6154 25.8176 44.5727 25.8392 44.5584 25.8769C44.4463 26.1735 44.6546 26.5851 44.7418 26.7702C44.7667 26.8224 44.724 26.8817 44.667 26.8763C44.6118 26.8709 44.5442 26.8475 44.4836 26.7828C44.3519 26.6426 44.2754 26.4701 43.9086 26.4162C43.5419 26.3622 42.5485 27.0722 42.4345 27.6006C42.3241 28.1093 42.5823 28.2854 43.0309 28.8642C43.0558 28.8965 43.0487 28.9433 43.0167 28.9684C42.8404 29.1032 42.8493 29.4232 43.0096 29.6425C43.022 29.6604 43.0274 29.682 43.022 29.7036C42.8903 30.2536 43.2926 30.3291 43.2926 30.5879C43.2926 30.8467 42.8671 30.9851 42.3936 30.9779C41.92 30.9707 41.7527 30.6472 41.1385 30.4225C40.5243 30.1979 40.0845 29.3657 39.6804 29.1967C39.2976 29.0367 38.5873 29.3513 38.3007 29.6119C38.274 29.6353 38.2348 29.6353 38.2063 29.6119C37.7861 29.2722 37.4194 29.0871 37.1719 28.9882C37.0954 28.9577 37.0366 29.0583 37.0972 29.1122C37.3482 29.3369 37.7025 29.655 37.7559 29.709C37.8396 29.7934 38.055 30.1457 37.8876 30.2859C37.7203 30.4261 37.5173 30.2644 37.2396 29.9264C36.9601 29.5885 36.7732 29.8348 36.6325 29.7934C36.5453 29.7665 36.321 29.8222 36.1661 29.8653C36.1055 29.8833 36.0931 29.9642 36.1465 29.9983C36.3138 30.1098 36.5666 30.3003 36.4865 30.3776C36.3672 30.4908 35.8171 30.4908 35.413 30.5394C35.0089 30.5879 34.7365 30.8 34.813 30.906C34.8718 30.9869 35.7157 31.0067 36.1055 31.0103C36.1732 31.0103 36.2035 31.0947 36.1536 31.1397C35.7602 31.4902 34.6973 32.4697 34.5086 32.9856C34.4926 33.0287 34.5193 33.0737 34.562 33.0845C35.1922 33.2336 36.2569 32.0977 36.5399 31.8407C36.5631 31.8209 36.5951 31.8137 36.6218 31.8299C36.8479 31.9593 36.0628 32.6117 36.2996 32.7987C36.5506 32.9964 36.8639 32.2361 37.5476 31.3913C38.2312 30.5465 38.7885 30.5322 39.967 30.5052C41.1456 30.4764 42.0233 31.0264 42.1016 31.1523C42.1782 31.2799 41.9823 31.5459 41.4108 31.1595C40.8394 30.773 39.7783 31.0336 39.3599 31.4345C38.9416 31.8353 38.5517 31.9701 38.5232 31.7616C38.5018 31.598 38.8294 31.2529 38.9665 31.1163C39.0146 31.0696 38.9807 30.9851 38.9131 30.9887C38.8543 30.9923 38.7635 31.0229 38.6264 31.1091C38.249 31.3482 37.2877 32.6782 37.3571 33.0305C37.4265 33.3828 37.601 33.1563 37.8111 33.0162C38.0194 32.876 38.1102 33.0575 38.0478 33.2768C37.9855 33.4943 37.5031 34.3408 37.6152 34.3462C37.7007 34.3516 38.1618 33.7046 38.4538 33.3325C38.5 33.2732 38.5926 33.3145 38.5837 33.3882C38.541 33.7189 38.5837 34.1593 38.7671 34.242C38.9095 34.3067 39.0608 33.8735 39.1641 33.4853C39.1855 33.408 39.2923 33.4152 39.3065 33.4925C39.3208 33.5662 39.3403 33.6273 39.3724 33.6632C39.465 33.7657 39.7854 33.1078 39.9724 32.6962C40.0044 32.6261 40.1094 32.6477 40.113 32.725C40.1219 33.0108 40.1593 33.3864 40.2804 33.4799C40.4157 33.5841 40.64 33.2103 40.7735 32.955C40.8055 32.8939 40.8963 32.9065 40.9106 32.973C40.9355 33.0934 40.9782 33.2121 41.0548 33.2121C41.2079 33.2121 41.7171 32.3961 41.7099 32.4302C41.7046 32.4572 41.7366 32.9263 41.7509 33.1438C41.7544 33.1959 41.8079 33.2264 41.8559 33.2049C41.9699 33.151 42.1799 33.0629 42.4488 32.9856C42.8671 32.8652 43.3977 32.7465 43.4813 32.6063C43.5276 32.5291 43.4938 32.3529 43.4529 32.2109C43.4315 32.1372 43.5223 32.0851 43.5757 32.139C43.695 32.2577 43.8303 32.4662 43.857 32.8113C43.8997 33.3648 43.1217 33.4349 42.9116 33.4439C42.8814 33.4439 42.8547 33.4655 42.844 33.4961C42.828 33.5482 42.7995 33.6362 42.7657 33.7171C42.7425 33.7729 42.666 33.7764 42.6339 33.7243C42.5912 33.6542 42.5307 33.5841 42.4826 33.5356C42.4488 33.5014 42.3918 33.5068 42.3669 33.55C42.285 33.692 42.0963 33.976 41.8541 34.0586C41.5978 34.1467 41.2613 33.7872 41.126 33.6273C41.0957 33.5895 41.0388 33.5931 41.0103 33.6327C40.8999 33.7908 40.6542 34.1251 40.5634 34.1305C40.5332 34.1305 40.5207 34.1162 40.5171 34.091C40.5082 34.0299 40.4406 33.9993 40.3979 34.0443L40.0649 34.375C40.0418 34.3983 40.0044 34.4037 39.9759 34.3858C39.9118 34.348 39.7961 34.2635 39.6697 34.1C39.6341 34.0532 39.5611 34.0658 39.5415 34.1215C39.3635 34.6302 40.5314 34.8099 40.9337 34.9286C41.2471 35.0202 41.2631 35.3204 41.2488 35.4786C41.2453 35.5253 41.2827 35.5631 41.329 35.5577C41.434 35.5451 41.5853 35.5577 41.5818 35.7248C41.5746 35.9549 41.3147 36.0052 41.2008 35.759C41.183 35.7194 41.1349 35.7014 41.0975 35.7248C40.9854 35.7913 40.7842 35.8884 40.5581 35.9944L41.0014 36.5049L41.0352 36.5247C41.0619 36.5175 41.0886 36.5121 41.1153 36.5049C41.6886 36.3557 42.155 35.6062 42.2565 35.4318C42.269 35.4103 42.2939 35.3959 42.3188 35.3959H42.4327C42.4327 35.9028 42.9757 36.3467 43.6469 36.6109C43.8427 36.6882 44.0119 36.7493 44.1507 36.7997C44.1668 36.805 44.1828 36.805 44.1988 36.7997L44.4445 36.7098C44.5157 36.6828 44.505 36.5786 44.4302 36.5678C43.7057 36.451 43.2517 35.8291 43.1965 35.6098" fill="white"/>
<path d="M39.8905 30.1619C39.6306 30.196 39.4508 29.8527 39.2425 30.1062C39.0342 30.3596 38.4894 30.3075 38.541 29.9264C38.5927 29.5454 39.2211 29.3135 39.7018 29.5454C40.1825 29.7772 40.1825 30.1223 39.8905 30.1601" fill="#156D37"/>
<path d="M42.1389 34.6788C42.6178 34.3804 42.9133 34.3517 42.8403 34.6788C42.7673 35.0059 42.5786 35.1119 42.3383 35.1012C42.0979 35.0904 41.7525 34.9214 42.1389 34.6788Z" fill="#156D37"/>
<path d="M44.1166 26.9248C44.1166 26.9248 44.1166 26.9158 44.1166 26.9104C44.1166 26.8673 44.1059 26.8206 44.0757 26.7828C44.0454 26.7451 43.9973 26.7199 43.9475 26.7145C43.9314 26.7127 43.9154 26.7109 43.8994 26.7109C43.8264 26.7109 43.7445 26.7307 43.6573 26.7631C43.5255 26.8116 43.3831 26.8907 43.2638 26.9949C43.1446 27.0992 43.0449 27.2268 43.0128 27.3796C43.0075 27.4083 43.0039 27.4353 43.0039 27.4604C43.0039 27.5 43.011 27.5377 43.0271 27.5701C43.052 27.6186 43.0947 27.6528 43.1374 27.6689C43.1802 27.6869 43.2264 27.6905 43.2692 27.6905C43.376 27.6905 43.4792 27.66 43.5273 27.6438C43.5327 27.7301 43.5558 27.8559 43.6519 27.8523C43.7979 27.8469 44.0489 27.5359 44.1077 27.2933C44.1522 27.1064 44.1291 26.9769 44.1148 26.9266M43.1837 27.5144L43.1677 27.4964C43.1677 27.4964 43.1606 27.4766 43.1606 27.4551C43.1606 27.4425 43.1606 27.4263 43.1659 27.4065C43.1926 27.2699 43.3208 27.1279 43.4757 27.0255C43.5522 26.9752 43.6359 26.9338 43.7107 26.9051C43.7855 26.8763 43.8549 26.8619 43.9012 26.8637H43.9261C43.9493 26.8691 43.9546 26.8745 43.9564 26.8781C43.9599 26.8817 43.9635 26.8889 43.9635 26.9087C43.9635 26.9428 43.9439 27.0057 43.9083 27.0632C43.8745 27.1207 43.8246 27.1747 43.7819 27.2052C43.6341 27.3077 43.5202 27.4443 43.481 27.4928C43.4419 27.5054 43.3457 27.5323 43.2692 27.5305C43.2282 27.5305 43.1944 27.5216 43.1802 27.5126" fill="#156D37"/>
<path d="M44.6759 22.577C44.0867 22.471 43.3781 23.4074 43.3087 23.9718C42.8351 23.7884 42.3598 23.7885 42.374 24.3097C41.7883 24.1965 41.3699 24.2953 41.6637 25.1545C40.8821 25.2803 40.6293 25.5804 40.7433 26.055C40.8554 26.5295 41.6922 26.4198 41.6922 26.4198C41.6922 26.4198 42.0963 26.8853 41.1492 28.3502C41.1492 28.3502 41.5818 28.2801 41.8043 28.1813C41.9574 27.8146 42.0126 25.9705 44.0635 26.0693L44.6777 25.6326C44.6777 25.6326 43.6736 24.2522 44.6777 22.577" fill="#ED2224"/>
<path d="M41.0332 36.5246L40.9994 36.5048L40.5561 35.9944C40.0434 36.2334 39.4043 36.5048 39.4043 36.5048L39.3687 37.5078C39.3687 37.5078 39.5983 37.5006 39.8351 37.5635C40.0719 37.6264 40.0576 37.923 39.9811 38.1692C39.9045 38.4155 40.2535 38.4083 40.2944 38.2825C40.3354 38.1566 40.5668 38.1135 40.6647 38.2753C40.7626 38.437 40.9638 38.6276 40.9638 38.6276C40.9638 38.6276 41.1454 38.3382 40.873 37.9931C40.6006 37.648 40.0113 37.2184 40.0113 37.2184V36.5875C40.0113 36.5875 40.4244 36.6648 41.0297 36.5228" fill="#ED2224"/>
<path d="M47.2112 37.3084C46.8978 37.3084 46.5845 37.2976 46.3424 36.9291C45.851 37.0873 45.2867 36.9507 44.79 36.5804L44.1704 36.8087C44.4926 36.9201 44.6564 36.9615 44.6564 36.9615C44.6564 36.9615 44.8754 37.0783 45.3988 37.2473C45.0018 37.3102 44.9288 37.7973 45.1371 38.0076C45.3454 38.2197 45.4202 37.7326 45.4202 37.7326C45.4202 37.7326 45.4522 37.9339 45.7122 38.0076C45.9739 38.0813 45.8581 37.3947 45.8581 37.3947C45.8581 37.3947 46.0362 37.8907 46.2445 37.9015C46.4528 37.9123 46.5792 37.596 46.5792 37.596C46.5792 37.596 46.7786 37.9015 46.9548 37.986C47.1311 38.0705 47.2379 37.6697 47.2379 37.6697C47.2379 37.6697 47.6562 38.1981 47.7809 38.2502C47.7809 38.0076 47.5192 37.3102 47.2058 37.3102" fill="#ED2224"/>
<path d="M44.9214 29.2794C45.3468 29.2578 45.8275 28.9055 45.8275 28.9055C45.8275 28.9055 45.2703 27.6941 45.0193 27.5395C44.7682 27.3849 44.1879 27.5683 44.1362 28.2998C44.0846 29.0314 44.4959 29.2992 44.9214 29.2794Z" fill="#ED2224"/>
<path d="M37.5491 33.6022C37.5491 33.6022 36.9277 33.8268 36.8245 33.8196C36.7194 33.8125 36.3082 34.251 36.3082 34.251C36.3082 34.251 36.2672 33.7855 36.4204 33.4476C36.5735 33.1097 36.7266 33.054 36.7266 33.054C36.7266 33.054 36.8245 33.701 37.5491 33.6022Z" fill="white"/>
<path d="M39.648 25.2803C39.648 25.2803 38.4552 25.6829 38.0475 26.1987C37.6398 26.7164 38.2469 27.27 38.7846 26.968C39.324 26.6661 38.9982 25.8195 39.648 25.2803Z" fill="white"/>
<path d="M39.648 25.2803C39.648 25.2803 38.4552 25.6829 38.0475 26.1987C37.6398 26.7164 38.2469 27.27 38.7846 26.968C39.324 26.6661 38.9982 25.8195 39.648 25.2803Z" stroke="#156D37" stroke-width="2" stroke-linecap="round" stroke-linejoin="round"/>
<path d="M42.4524 22.9293C42.4524 22.9293 41.9789 22.4728 41.4697 22.4027C40.9605 22.3326 40.6472 23.0138 42.4524 22.9293Z" fill="white"/>
<path d="M42.4524 22.9293C42.4524 22.9293 41.9789 22.4728 41.4697 22.4027C40.9605 22.3326 40.6472 23.0138 42.4524 22.9293Z" stroke="#156D37" stroke-width="2" stroke-linecap="round" stroke-linejoin="round"/>
<path d="M25.1048 19.0864C25.1315 18.9911 25.2508 19.054 25.4555 19.063C25.6602 19.072 25.6228 18.8851 25.4982 18.6802C25.3718 18.4735 24.8395 18.5274 24.7131 18.912C24.5885 19.2967 25.0514 19.2787 25.1048 19.0864Z" fill="#156D37"/>
<path d="M24.6439 18.0242C24.6599 18.4304 25.1353 18.4197 25.3026 18.1033C25.47 17.787 25.1139 17.4904 25.1139 17.4904C25.1139 17.4904 25.3703 17.3736 25.3471 17.1849C25.324 16.9943 24.7685 16.8092 24.3199 17.0105C23.8695 17.2118 24.0689 18.2453 24.3573 18.1357C24.6457 18.0242 24.2006 17.0644 24.911 17.4706C24.911 17.4706 24.6279 17.618 24.6439 18.0242Z" fill="#156D37"/>
<path d="M96.0661 37.6193H96.3385C96.4684 37.6193 96.5574 37.5996 96.6055 37.56C96.6536 37.5205 96.6767 37.4683 96.6767 37.4054C96.6767 37.3641 96.6643 37.3264 96.6429 37.294C96.6198 37.2616 96.5877 37.2365 96.5485 37.2203C96.5076 37.2041 96.4328 37.1951 96.3224 37.1951H96.0679V37.6157L96.0661 37.6193ZM95.8418 38.4084V37.0064H96.3189C96.4827 37.0064 96.6002 37.019 96.6732 37.046C96.7462 37.0711 96.8049 37.1161 96.8476 37.1826C96.8904 37.2473 96.9117 37.3156 96.9117 37.3875C96.9117 37.4899 96.8761 37.5798 96.8031 37.6553C96.7301 37.7308 96.634 37.7739 96.5147 37.7829C96.5628 37.8045 96.6037 37.8278 96.6322 37.8566C96.6892 37.9123 96.7568 38.004 96.8387 38.1352L97.0079 38.4102H96.7355L96.6109 38.1891C96.5147 38.0147 96.4346 37.9051 96.3759 37.862C96.3349 37.8296 96.2744 37.8134 96.1961 37.8152H96.0643V38.4102H95.84L95.8418 38.4084ZM96.4097 36.6002C96.2281 36.6002 96.0501 36.6469 95.8792 36.7422C95.7065 36.8357 95.5729 36.9705 95.475 37.1448C95.3789 37.3192 95.329 37.5007 95.329 37.6894C95.329 37.8781 95.3771 38.0579 95.4715 38.2304C95.5658 38.403 95.6993 38.5378 95.8703 38.633C96.0412 38.7283 96.221 38.7768 96.4061 38.7768C96.5913 38.7768 96.7711 38.7283 96.942 38.633C97.1129 38.536 97.2464 38.403 97.3408 38.2304C97.4351 38.0579 97.4832 37.8781 97.4832 37.6894C97.4832 37.5007 97.4351 37.3192 97.339 37.1448C97.2429 36.9705 97.1076 36.8357 96.9349 36.7422C96.7622 36.6487 96.5859 36.6002 96.4061 36.6002M96.4097 36.3845C96.6269 36.3845 96.8387 36.4402 97.0452 36.5535C97.2518 36.6649 97.4138 36.8267 97.5277 37.0352C97.6434 37.2455 97.7004 37.4629 97.7004 37.6894C97.7004 37.9159 97.6434 38.1298 97.5295 38.3383C97.4156 38.545 97.2571 38.7067 97.0524 38.8218C96.8476 38.9368 96.6322 38.9943 96.4097 38.9943C96.1872 38.9943 95.9717 38.9368 95.767 38.8218C95.5623 38.7067 95.402 38.5468 95.2881 38.3383C95.1742 38.1316 95.1172 37.9141 95.1172 37.6894C95.1172 37.4647 95.1759 37.2437 95.2899 37.0352C95.4056 36.8267 95.5676 36.6649 95.7741 36.5535C95.9806 36.4402 96.1925 36.3845 96.4097 36.3845Z" fill="#ED2224"/>
<path d="M42.1228 43.4643C42.0178 43.1678 41.7792 43.0456 41.3092 43.0456H38.7278C38.3503 43.0456 38.1509 43.1696 38.1509 43.4032C38.1509 43.6153 38.3005 43.7393 38.7278 43.7789L41.6528 43.9137C42.6231 43.9856 42.9489 44.4727 42.9435 45.0604C42.9435 45.6877 42.5501 46.1964 41.53 46.1964H38.8755C37.9498 46.1964 37.4014 45.8782 37.2412 45.3408L38.0566 44.9436C38.1616 45.3121 38.4109 45.4415 38.8827 45.4415H41.5371C41.9412 45.4415 42.1353 45.3192 42.1353 45.0604C42.1353 44.8016 41.9519 44.7027 41.5638 44.6686L38.6103 44.523C37.6578 44.4511 37.3409 43.9694 37.3409 43.4212C37.3409 42.7939 37.7344 42.2906 38.7705 42.2906H41.3199C42.1958 42.2906 42.721 42.5818 42.8883 43.0689L42.1228 43.4661V43.4643Z" fill="white"/>
<path d="M47.7466 42.3069C49.0373 42.3069 49.4966 42.9054 49.4966 43.7394V43.7448C49.4966 44.5788 49.0373 45.1773 47.7466 45.1773H44.599V46.1785H43.7178V42.3069H47.7466ZM48.6118 43.7376C48.6118 43.335 48.384 43.1175 47.7484 43.1175H44.6008V44.3595H47.7484C48.3857 44.3595 48.6118 44.1528 48.6118 43.7448V43.7394V43.7376Z" fill="white"/>
<path d="M54.6631 42.2889C56.0535 42.2889 56.8404 42.9881 56.8404 44.2409V44.2463C56.8404 45.4937 56.0535 46.1929 54.6631 46.1929H52.2027C50.8123 46.1929 50.0254 45.4937 50.0254 44.2463V44.2409C50.0254 42.9881 50.8123 42.2889 52.2027 42.2889H54.6631ZM54.6631 45.3822C55.5497 45.3822 55.9591 44.9742 55.9591 44.2463V44.2409C55.9591 43.5076 55.5497 43.0996 54.6631 43.0996H52.2027C51.3215 43.0996 50.912 43.5076 50.912 44.2409V44.2463C50.912 44.9742 51.3215 45.3822 52.2027 45.3822H54.6631Z" fill="white"/>
<path d="M63.4953 46.1766H62.493L61.7221 45.0083H58.5033V46.1766H57.6221V42.3051H61.6776C62.963 42.3051 63.4009 42.9036 63.4009 43.6693V43.6747C63.4009 44.2067 63.1802 44.6596 62.5873 44.8717L63.4953 46.1748V46.1766ZM58.5033 43.1013V44.248H61.6776C62.2758 44.248 62.5143 44.0521 62.5143 43.6783V43.6729C62.5143 43.2972 62.2758 43.1031 61.6776 43.1031H58.5033V43.1013Z" fill="white"/>
<path d="M69.5341 42.3069V43.1391H67.1806V46.1767H66.2655V43.1391H63.9102V42.3069H69.5341Z" fill="white"/>
<path d="M74.8376 43.4643C74.7326 43.1678 74.494 43.0456 74.024 43.0456H71.4426C71.0652 43.0456 70.8658 43.1696 70.8658 43.4032C70.8658 43.6153 71.0153 43.7393 71.4426 43.7789L74.3676 43.9137C75.3379 43.9856 75.6637 44.4727 75.6584 45.0604C75.6584 45.6877 75.2649 46.1964 74.2448 46.1964H71.5904C70.6646 46.1964 70.1163 45.8782 69.9561 45.3408L70.7714 44.9436C70.8765 45.3121 71.1257 45.4415 71.5975 45.4415H74.2519C74.6561 45.4415 74.8501 45.3192 74.8501 45.0604C74.8501 44.8016 74.6667 44.7027 74.2786 44.6686L71.3251 44.523C70.3726 44.4511 70.0558 43.9694 70.0558 43.4212C70.0558 42.7939 70.4492 42.2906 71.4853 42.2906H74.0347C74.9106 42.2906 75.4358 42.5818 75.6032 43.0689L74.8376 43.4661V43.4643Z" fill="white"/>
<path d="M84.5848 45.1198C84.5848 45.8423 84.0311 46.1766 83.1107 46.1766H78.6172V42.3051H82.9113C83.8691 42.3051 84.3907 42.6286 84.3907 43.3457C84.3907 43.8778 84.1308 44.1114 83.6821 44.2013C84.1966 44.2678 84.5848 44.4925 84.5848 45.118M79.4967 43.0222V43.8832H82.9148C83.2869 43.8832 83.5077 43.7879 83.5077 43.4572C83.5077 43.1265 83.2798 43.0204 82.9095 43.0204H79.4967V43.0222ZM79.4967 45.4613H83.1089C83.4917 45.4613 83.7071 45.339 83.7071 45.0137C83.7071 44.7118 83.5077 44.5716 83.1089 44.5716H79.4967V45.4613Z" fill="white"/>
<path d="M91.6649 46.1766H90.668L90.1036 45.3984H86.5804L86.016 46.1766H85.019L87.9049 42.3051H88.7808L91.6685 46.1766H91.6649ZM88.3411 43.0384L87.1109 44.6776H89.5713L88.3411 43.0384Z" fill="white"/>
<path d="M98.2043 46.1766H97.202L96.4311 45.0083H93.2123V46.1766H92.3311V42.3051H96.3866C97.672 42.3051 98.1099 42.9036 98.1099 43.6693V43.6747C98.1099 44.2067 97.8892 44.6596 97.2963 44.8717L98.2043 46.1748V46.1766ZM93.2123 43.1013V44.248H96.3866C96.9848 44.248 97.2233 44.0521 97.2233 43.6783V43.6729C97.2233 43.2972 96.9848 43.1031 96.3866 43.1031H93.2123V43.1013Z" fill="white"/>
</svg>
